<svg width="256" height="251" viewBox="0 0 256 251" fill="none" xmlns="http://www.w3.org/2000/svg">
<g opacity="0.3">
<path d="M161.74 182.274C190.273 161.455 196.525 121.447 175.706 92.9154C154.887 64.3834 114.88 58.1309 86.3476 78.9501C57.8156 99.7692 51.5631 139.776 72.3822 168.308C93.2014 196.84 133.208 203.093 161.74 182.274Z" fill="#64CF83"/>
<path d="M147.644 71.1591C141.917 71.484 136.227 70.0579 131.331 67.0705C134.264 67.112 137.857 62.2438 141.122 51.1999C143.793 42.1795 146.156 33.4208 147.774 27.1004C148.02 26.1447 148.244 25.2605 148.459 24.4284L152.696 25.4967C152.491 26.3304 152.267 27.2147 152.032 28.1719C150.476 34.5022 148.411 43.3394 146.511 52.5552C144.182 63.8309 145.031 69.8209 147.644 71.1591Z" fill="#64CF83"/>
<path opacity="0.2" d="M152.032 28.1722C151.301 28.1161 150.575 28.0027 149.862 27.8331C149.146 27.6601 148.446 27.4291 147.768 27.1424C148.013 26.1868 148.237 25.3025 148.452 24.4705L152.689 25.5387C152.491 26.3307 152.267 27.215 152.032 28.1722Z" fill="black"/>
<path d="M158.446 24.3324C158.548 23.9135 158.558 23.4774 158.475 23.0543C158.462 22.9616 158.444 22.8696 158.422 22.7788L158.438 22.6745C158.39 22.5317 158.329 22.3934 158.257 22.2614C158.266 22.1988 158.181 22.1319 158.147 22.0732C158.087 21.9697 158.02 21.8701 157.948 21.7749V21.7749C156.367 20.2186 154.398 19.1135 152.246 18.5742C150.094 18.0348 147.836 18.0809 145.708 18.7076V18.7076C145.601 18.7524 145.496 18.8039 145.395 18.8618L145.206 18.9818C145.079 19.0616 144.96 19.1542 144.852 19.2579C144.826 19.2918 144.796 19.323 144.763 19.3509C144.7 19.4156 144.643 19.4853 144.592 19.5592C144.315 19.8898 144.119 20.2798 144.018 20.6987C143.916 21.1055 143.901 21.5293 143.973 21.9423C144.172 23.6834 146.771 25.586 150.263 26.4952C153.755 27.4043 156.977 26.8925 157.971 25.4553C158.202 25.1161 158.364 24.7344 158.446 24.3324V24.3324Z" fill="#64CF83"/>
<path opacity="0.3" d="M155.831 22.5987C155.534 23.7493 153.338 24.1864 150.921 23.5841C148.503 22.9818 146.782 21.5478 147.079 20.3972C147.253 19.6975 148.158 19.2404 149.409 19.1687C148.078 19.6127 147.975 20.8899 149.274 21.8091C150.751 22.6822 152.455 23.0936 154.167 22.9905C155.175 22.8275 155.83 22.4702 155.667 21.6645C155.841 21.9429 155.899 22.2778 155.831 22.5987V22.5987Z" fill="black"/>
<path d="M121.427 66.6983C116.326 69.3244 110.546 70.3337 104.857 69.5918C107.557 68.4533 109.57 66.7905 108.074 55.3659C106.848 46.0464 106.96 45.4011 105.867 38.9883C105.708 38.0228 105.549 37.1216 105.404 36.2759L109.711 35.5274C109.858 36.3627 110.015 37.2744 110.196 38.2327C111.331 44.652 111.536 45.2506 113.543 54.4356C116.04 65.6747 118.493 66.5283 121.427 66.6983Z" fill="#64CF83"/>
<path opacity="0.2" d="M110.199 38.2118C109.503 38.4501 108.788 38.6315 108.062 38.7543C107.346 38.8861 106.619 38.9585 105.891 38.9707C105.732 38.0053 105.573 37.1041 105.428 36.2583L109.734 35.5098C109.864 36.321 110.018 37.2535 110.199 38.2118Z" fill="black"/>
<path d="M115.733 31.114C115.639 30.61 115.441 30.1312 115.151 29.7084L114.947 29.4413L114.857 29.3311C114.739 29.202 114.612 29.0819 114.475 28.9721L114.253 28.8199L113.892 28.603C112.189 27.6636 109.311 27.342 106.169 27.8877C103.027 28.4334 100.432 29.7167 99.1445 31.1829L98.8909 31.5067C98.8362 31.5779 98.7854 31.652 98.7386 31.7287C98.6393 31.8772 98.5571 32.0365 98.4934 32.2034L98.4722 32.339C98.4542 32.4538 98.4379 32.5581 98.4216 32.6625C98.2873 33.1566 98.2611 33.6738 98.3449 34.1789C98.4387 34.6696 98.6313 35.1361 98.9109 35.55C99.9585 37.3277 103.707 38.17 107.925 37.4398C112.144 36.7096 115.385 34.6403 115.767 32.6051C115.857 32.1109 115.845 31.6036 115.733 31.114V31.114Z" fill="#64CF83"/>
<path opacity="0.3" d="M112.057 30.4967C112.3 31.8814 110.138 33.4033 107.244 33.9344C104.35 34.4654 101.783 33.7223 101.54 32.3375C101.394 31.4917 102.159 30.5638 103.474 29.8821C102.228 31.0128 102.743 32.4399 104.597 32.8153C106.618 33.041 108.661 32.6608 110.465 31.7229C111.486 31.0702 112.014 30.3617 111.454 29.5687C111.763 29.792 111.978 30.1229 112.057 30.4967V30.4967Z" fill="black"/>
<path d="M94.4548 73.8447C91.4191 77.6172 87.3085 80.378 82.6681 81.7612C84.3616 79.9523 83.3491 74.9415 78.2512 66.6629C77.1515 64.8771 76.7339 63.5826 73.6874 59.0021C73.229 58.3106 72.8267 57.6705 72.397 57.0689L75.4649 55.0153L76.7674 56.9397C78.4324 59.3983 80.2238 61.7689 82.1346 64.0419C87.9296 71.8951 92.1789 74.7289 94.4548 73.8447Z" fill="#64CF83"/>
<path opacity="0.2" d="M76.7889 56.9431C76.3304 57.362 75.8417 57.7465 75.3265 58.0933C74.8117 58.4388 74.2709 58.7437 73.7089 59.0056C73.2505 58.314 72.8482 57.6739 72.4185 57.0724L75.4864 55.0187L76.7889 56.9431Z" fill="black"/>
<path d="M78.0226 50.755C77.8138 50.4582 77.5481 50.2059 77.2408 50.0129L77.0347 49.8951L76.9408 49.8805C76.8227 49.8294 76.7003 49.7888 76.575 49.7592L76.0846 49.6825C74.2173 49.801 72.415 50.4134 70.8621 51.4572C69.3093 52.5009 68.0616 53.9385 67.2468 55.6229V55.6229L67.2011 55.915C67.1862 55.9767 67.1763 56.0395 67.1718 56.1028C67.1415 56.2261 67.1219 56.3518 67.1131 56.4784C67.1131 56.4784 67.1033 56.541 67.0984 56.5723L67.1251 56.8117C67.1877 57.1699 67.3235 57.5113 67.5242 57.8146C67.7226 58.1058 67.9786 58.3531 68.2764 58.5414C69.4778 59.4025 72.16 58.8598 74.6915 57.1605C77.223 55.4612 78.7226 53.1838 78.38 51.7514C78.3317 51.398 78.21 51.0585 78.0226 50.755V50.755Z" fill="#64CF83"/>
<path opacity="0.3" d="M75.4492 51.4218C76.0148 52.2477 75.066 53.8737 73.3 55.0514C71.5341 56.229 69.6965 56.4976 69.1308 55.6717C68.794 55.1594 69.02 54.329 69.6715 53.5116C69.2016 54.6032 69.9456 55.3822 71.2518 55.0947C72.6326 54.6521 73.8528 53.8132 74.7605 52.6823C75.2255 51.964 75.3634 51.355 74.7677 50.9947C75.0423 51.0416 75.2873 51.1951 75.4492 51.4218Z" fill="black"/>
<path d="M74.86 89.7973C73.3953 95.3446 70.2774 100.315 65.9205 104.048C66.8785 101.269 63.3495 96.3567 53.8525 89.8276C46.1334 84.5061 38.4962 79.5502 32.9919 76.0606L30.6509 74.6259L32.9816 70.9286L35.3226 72.3633C40.8664 75.8056 48.6311 80.4929 56.8383 85.1531C66.7693 90.8202 72.721 91.8572 74.86 89.7973Z" fill="#64CF83"/>
<path opacity="0.2" d="M35.2734 72.3341C34.6812 73.6809 33.8948 74.9336 32.9394 76.0523L30.5984 74.6176L32.9291 70.9203L35.2734 72.3341Z" fill="black"/>
<path d="M33.7342 62.9014C33.2787 62.6181 32.7677 62.4362 32.2357 62.3679L31.8914 62.3141L31.7453 62.2912C31.5556 62.2978 31.3666 62.3183 31.1799 62.3525C31.0906 62.3659 31.0021 62.3842 30.9148 62.4073L30.489 62.5331C28.5565 63.2038 26.2643 65.2184 24.4921 68.009C22.7199 70.7996 21.8906 73.7803 22.1283 75.8162C22.1071 75.9518 22.1798 76.1021 22.2107 76.2459C22.2417 76.3897 22.1846 76.4129 22.2639 76.5214C22.32 76.6989 22.3856 76.8733 22.4601 77.0438L22.5361 77.1732C22.5897 77.275 22.6492 77.3736 22.7144 77.4683C23.0095 77.9211 23.3975 78.306 23.8526 78.5975C24.2977 78.8696 24.7933 79.0489 25.3094 79.1244C27.4441 79.5542 30.7487 77.2169 33.1407 73.4009C35.5328 69.5848 36.1974 65.6057 34.876 63.8708C34.5658 63.4729 34.1771 63.1429 33.7342 62.9014V62.9014Z" fill="#64CF83"/>
<path opacity="0.3" d="M30.6635 65.382C31.9197 66.1662 31.5936 68.937 29.9414 71.5753C28.2892 74.2137 25.9292 75.7046 24.6834 74.9221C23.9146 74.4385 23.7265 73.1799 24.121 71.6811C24.1458 73.4379 25.6104 74.0515 27.2061 72.8687C28.8052 71.4469 29.948 69.5838 30.4906 67.514C30.6879 66.2516 30.5037 65.3784 29.5021 65.2219C29.8955 65.1247 30.3111 65.1821 30.6635 65.382V65.382Z" fill="black"/>
<path d="M62.3654 113.732C62.6781 119.11 61.9127 124.496 60.1141 129.573C60.0845 126.822 56.9395 124.171 49.8897 122.706C44.1447 121.509 38.5637 120.562 34.5419 119.966L32.8516 119.701L33.4298 115.591L35.1305 115.857C39.1589 116.412 44.7871 117.056 50.6375 117.511C57.8132 118.034 61.5609 116.418 62.3654 113.732Z" fill="#64CF83"/>
<path opacity="0.2" d="M35.2083 115.837C35.1786 116.506 35.1231 117.203 35.0178 117.945C34.9196 118.643 34.7829 119.336 34.6082 120.019L32.8449 119.743L33.4232 115.633L35.2083 115.837Z" fill="black"/>
<path d="M31.3602 110.437C30.9961 110.387 30.6256 110.421 30.2761 110.534L30.0407 110.604L29.9386 110.642C29.8191 110.7 29.7047 110.768 29.5969 110.845L29.4296 110.958L29.1939 111.167C27.9583 112.712 27.1599 114.56 26.882 116.519C26.604 118.478 26.8568 120.475 27.6138 122.303V122.303C27.6651 122.394 27.7228 122.482 27.7866 122.565L27.8994 122.732C27.9857 122.831 28.0782 122.924 28.1765 123.011L28.2727 123.079L28.4755 123.218C28.7946 123.429 29.1566 123.565 29.5352 123.619C29.8969 123.668 30.2649 123.642 30.616 123.542C32.1335 123.202 33.6119 120.718 34.0675 117.529C34.5231 114.34 33.7951 111.544 32.4264 110.796C32.1011 110.6 31.7374 110.478 31.3602 110.437V110.437Z" fill="#64CF83"/>
<path opacity="0.3" d="M30.0742 112.918C31.1175 113.081 31.7096 114.97 31.3968 117.176C31.084 119.382 29.9826 121.027 28.936 120.885C28.2891 120.784 27.8092 120.025 27.6263 118.938C28.1414 120.088 29.2816 120.041 29.9862 118.815C30.6115 117.42 30.8126 115.872 30.5645 114.363C30.3281 113.482 29.9529 112.942 29.2571 113.154C29.3695 113.06 29.5002 112.991 29.6408 112.95C29.7815 112.91 29.9291 112.899 30.0742 112.918Z" fill="black"/>
<path d="M60.7695 139.883C63.9097 144.687 65.5173 150.332 65.3797 156.069C63.9542 153.495 57.9536 152.771 46.7396 155.518C37.6 157.713 28.8229 160.051 22.5418 161.805C21.593 162.063 20.7188 162.322 19.8913 162.556L18.689 158.349L21.3427 157.578C27.6007 155.766 36.295 153.138 45.2116 150.181C56.1547 146.569 60.9086 142.822 60.7695 139.883Z" fill="#64CF83"/>
<path opacity="0.2" d="M21.3423 157.578C21.6402 158.249 21.8892 158.942 22.0873 159.65C22.2943 160.354 22.4427 161.075 22.531 161.804C21.5821 162.061 20.708 162.32 19.8805 162.554L18.6781 158.348L21.3423 157.578Z" fill="black"/>
<path d="M12.6246 151.737C12.0626 151.904 11.5416 152.187 11.0948 152.567C10.9974 152.65 10.905 152.739 10.818 152.833L10.6941 152.942C10.5611 153.096 10.4392 153.259 10.3292 153.43C10.2768 153.52 10.2302 153.612 10.1896 153.708C10.1668 153.854 10.0396 153.984 9.97344 154.134C9.1152 156.137 9.06619 159.529 10.0758 163.053C11.0855 166.578 12.8676 169.4 14.6967 170.691C14.8277 170.784 14.9643 170.87 15.1056 170.947L15.371 171.095C15.5531 171.184 15.7413 171.26 15.934 171.322L16.1532 171.357C16.2765 171.387 16.4021 171.406 16.5288 171.415C17.1081 171.512 17.7018 171.477 18.2656 171.313C18.8258 171.154 19.342 170.869 19.7746 170.48C21.6945 169.07 22.1987 164.681 20.8523 159.96C19.5058 155.239 16.7883 151.768 14.3713 151.572C13.784 151.5 13.1881 151.556 12.6246 151.737V151.737Z" fill="#64CF83"/>
<path opacity="0.3" d="M12.3731 156.015C13.9277 155.574 15.9423 157.867 16.9148 161.15C17.8873 164.434 17.3358 167.415 15.7796 167.867C14.8291 168.135 13.719 167.374 12.7324 165.958C14.1761 167.253 15.7581 166.431 15.959 164.325C15.9718 161.981 15.2934 159.685 14.0085 157.725C13.1086 156.643 12.2596 156.126 11.418 156.86C11.6174 156.467 11.9589 156.165 12.3731 156.015V156.015Z" fill="black"/>
<path d="M69.7854 164.465C74.5103 168.084 78.3764 172.703 81.1067 177.991C78.7967 176.016 73.9806 176.878 66.8985 182.184C61.1188 186.475 55.6987 190.791 51.8574 193.963L50.2356 195.313L47.2918 191.785C47.7945 191.372 48.3417 190.881 48.9031 190.434C52.7093 187.213 57.9236 182.641 63.1638 177.699C69.5458 171.674 71.3278 167.111 69.7854 164.465Z" fill="#64CF83"/>
<path opacity="0.2" d="M48.9037 190.434C49.4621 190.965 49.9879 191.529 50.4781 192.123C50.9702 192.711 51.4308 193.326 51.8579 193.963L50.2361 195.313L47.2923 191.785C47.7951 191.372 48.367 190.927 48.9037 190.434Z" fill="black"/>
<path d="M41.3398 189.861C41.0092 190.137 40.7435 190.482 40.5618 190.872C40.5175 190.956 40.479 191.043 40.4464 191.132C40.4345 191.169 40.4285 191.208 40.4284 191.247C40.3949 191.391 40.372 191.537 40.3599 191.685C40.3485 191.758 40.3371 191.831 40.3257 191.904C40.3143 191.977 40.2898 192.134 40.2719 192.248C40.6345 194.439 41.5778 196.493 43.0036 198.195C44.4295 199.897 46.2856 201.186 48.3788 201.927L48.9527 202.017C49.1041 202.021 49.2556 202.012 49.4056 201.991L49.5203 202.009C49.6107 201.994 49.6999 201.973 49.787 201.944C50.2114 201.84 50.6072 201.642 50.9462 201.366C51.261 201.105 51.5189 200.781 51.7039 200.416C52.5723 198.895 51.6017 195.804 49.2872 193.037C46.9726 190.271 44.0979 188.763 42.4458 189.35C42.0461 189.443 41.6697 189.617 41.3398 189.861Z" fill="#64CF83"/>
<path opacity="0.3" d="M42.4409 192.801C43.35 192.046 45.3855 192.973 46.9779 194.889C48.5703 196.806 49.1303 198.967 48.2213 199.722C47.667 200.192 46.6686 200.014 45.6233 199.316C46.9696 199.73 47.847 198.766 47.2918 197.258C46.6057 195.684 45.4676 194.349 44.022 193.423C43.111 192.96 42.3758 192.877 42.0255 193.613C42.0555 193.299 42.2041 193.009 42.4409 192.801V192.801Z" fill="black"/>
<path d="M90.2327 184.911C94.3498 186.264 98.2624 188.174 101.862 190.587C100.155 190.021 97.1911 190.723 94.9853 194.237C93.0253 197.34 91.4037 200.261 90.3453 202.383C90.1767 202.709 90.0339 203.008 89.8943 203.285L87.4412 202.09C87.5807 201.812 87.7252 201.503 87.8817 201.186C89.2312 198.401 90.3941 195.53 91.3626 192.591C92.6637 188.37 91.7325 185.915 90.2327 184.911Z" fill="#64CF83"/>
<path opacity="0.2" d="M87.8502 201.181C88.2774 201.339 88.6949 201.522 89.1006 201.729C89.5385 201.936 89.9418 202.16 90.3138 202.378C90.1453 202.705 90.0024 203.003 89.8629 203.28L87.4097 202.085C87.5493 201.807 87.6937 201.498 87.8502 201.181Z" fill="black"/>
<path d="M82.1274 202.852C81.9792 203.15 81.8989 203.477 81.8922 203.809C81.8759 203.881 81.8644 203.955 81.858 204.028C81.858 204.028 81.8499 204.081 81.845 204.112C81.8603 204.228 81.8852 204.343 81.9196 204.455L81.9698 204.612C81.9568 204.696 82.0393 204.784 82.0784 204.875C83.0232 206.306 84.3328 207.459 85.872 208.214C87.4113 208.969 89.1242 209.3 90.834 209.172V209.172L91.1007 209.107L91.2598 209.046C91.3685 209.004 91.4731 208.953 91.5725 208.892L91.6449 208.839L91.8154 208.706C92.0779 208.499 92.2906 208.237 92.4379 207.937C92.5752 207.643 92.6539 207.325 92.6698 207.001C92.8038 205.664 91.1423 203.78 88.6403 202.555C86.1382 201.33 83.64 201.175 82.6615 202.102C82.4319 202.311 82.2498 202.567 82.1274 202.852V202.852Z" fill="#64CF83"/>
<path opacity="0.3" d="M83.8238 204.581C84.2304 203.758 85.9581 203.782 87.6855 204.629C89.4129 205.476 90.4839 206.83 90.0878 207.655C89.8377 208.161 89.0809 208.353 88.1298 208.215C89.2188 208.086 89.494 207.145 88.6636 206.235C87.6856 205.341 86.4627 204.759 85.1518 204.564C84.3578 204.515 83.8075 204.685 83.8051 205.316C83.7232 205.077 83.7298 204.816 83.8238 204.581Z" fill="black"/>
<path d="M114.383 193.699C119.906 192.074 125.794 192.178 131.256 193.995C128.381 194.614 126.081 195.858 125.405 207.36C124.847 216.743 124.612 217.358 124.47 223.877C124.445 224.857 124.43 225.774 124.413 226.637L120.033 226.551C120.045 225.698 120.06 224.781 120.078 223.8C120.157 217.282 120.124 216.667 119.852 207.262C119.517 195.73 117.232 194.411 114.383 193.699Z" fill="#64CF83"/>
<path opacity="0.2" d="M120.026 223.792C120.741 223.692 121.463 223.648 122.185 223.659C122.919 223.671 123.652 223.739 124.376 223.863C124.351 224.842 124.336 225.759 124.319 226.622L119.939 226.536C119.952 225.683 119.981 224.768 120.026 223.792Z" fill="black"/>
<path d="M113.243 229.722C113.239 230.233 113.346 230.738 113.556 231.203C113.594 231.306 113.64 231.406 113.691 231.502L113.757 231.63C113.854 231.778 113.96 231.919 114.075 232.054L114.259 232.243L114.568 232.526C116.061 233.775 118.833 234.646 122.021 234.696C125.209 234.745 128 233.984 129.533 232.792L129.843 232.519C129.854 232.446 129.979 232.402 130.032 232.335C130.157 232.207 130.268 232.067 130.364 231.917C130.364 231.917 130.379 231.823 130.386 231.781C130.443 231.69 130.494 231.594 130.537 231.495C130.766 231.033 130.889 230.527 130.897 230.012C130.901 229.516 130.803 229.024 130.61 228.567C129.92 226.621 126.399 225.076 122.114 225.005C117.828 224.934 114.262 226.343 113.502 228.266C113.317 228.728 113.228 229.224 113.243 229.722V229.722Z" fill="#64CF83"/>
<path opacity="0.3" d="M116.738 231.016C116.765 229.61 119.182 228.513 122.134 228.568C125.086 228.623 127.457 229.795 127.44 231.203C127.423 232.066 126.491 232.829 125.077 233.26C126.492 232.413 126.272 230.882 124.494 230.155C122.548 229.549 120.466 229.536 118.514 230.118C117.374 230.571 116.746 231.167 117.144 232.042C116.883 231.764 116.738 231.398 116.738 231.016V231.016Z" fill="black"/>
<path d="M142.186 191.77C145.879 188.641 150.433 186.707 155.249 186.222C153.246 187.684 153.291 192.8 156.734 201.889C157.497 203.846 157.632 205.236 159.763 210.271C160.082 211.037 160.377 211.746 160.668 212.412L157.237 213.853C156.956 213.189 156.651 212.468 156.321 211.711C155.146 208.979 153.833 206.309 152.387 203.71C148.213 194.924 144.618 191.391 142.186 191.77Z" fill="#64CF83"/>
<path opacity="0.2" d="M156.352 211.716C156.882 211.41 157.432 211.138 157.997 210.904C158.568 210.663 159.156 210.465 159.757 210.313C160.075 211.079 160.371 211.788 160.662 212.453L157.23 213.894C156.987 213.194 156.676 212.514 156.352 211.716Z" fill="black"/>
<path d="M153.995 217.568C154.136 217.899 154.349 218.195 154.618 218.435C154.674 218.491 154.734 218.543 154.797 218.591L154.882 218.658C154.984 218.73 155.093 218.79 155.207 218.837L155.384 218.865L155.668 218.963C157.524 219.211 159.412 218.956 161.136 218.226C162.86 217.495 164.355 216.314 165.467 214.808V214.808C165.514 214.721 165.557 214.631 165.595 214.539C165.604 214.477 165.614 214.414 165.624 214.351C165.653 214.231 165.672 214.109 165.681 213.986C165.692 213.952 165.697 213.917 165.697 213.882C165.715 213.806 165.727 213.73 165.733 213.652C165.752 213.276 165.686 212.901 165.542 212.554C165.403 212.229 165.197 211.938 164.937 211.7C163.918 210.632 161.189 210.655 158.385 211.841C155.581 213.028 153.619 214.976 153.73 216.458C153.734 216.843 153.824 217.223 153.995 217.568V217.568Z" fill="#64CF83"/>
<path opacity="0.3" d="M156.64 217.394C156.249 216.477 157.497 215.059 159.431 214.239C161.366 213.419 163.256 213.5 163.677 214.432C163.91 214.992 163.534 215.756 162.735 216.422C163.409 215.459 162.827 214.534 161.485 214.57C160.049 214.739 158.695 215.331 157.596 216.271C156.996 216.894 156.747 217.464 157.262 217.929C157.128 217.886 157.004 217.816 156.897 217.724C156.79 217.632 156.703 217.52 156.64 217.394Z" fill="black"/>
<path d="M164.53 179.838C167.024 174.67 171.026 170.38 176.009 167.534C174.541 170.084 177.082 175.579 185.174 183.78C191.769 190.476 198.299 196.777 203.051 201.25C203.768 201.928 204.432 202.534 205.065 203.136L202.074 206.334L200.057 204.469C195.267 200.033 188.521 193.955 181.386 187.838C172.616 180.354 166.967 178.199 164.53 179.838Z" fill="#64CF83"/>
<path opacity="0.2" d="M200.045 204.468C200.444 203.858 200.892 203.281 201.384 202.743C201.883 202.202 202.422 201.701 202.997 201.242C203.714 201.921 204.378 202.527 205.011 203.128L202.021 206.327L200.045 204.468Z" fill="black"/>
<path d="M199.748 213.967C200.143 214.33 200.609 214.607 201.117 214.779L201.461 214.833L201.607 214.856C201.788 214.905 201.973 214.934 202.16 214.942L202.44 214.932L202.873 214.893C204.895 214.611 207.522 213.055 209.803 210.632C212.084 208.21 213.455 205.453 213.603 203.413C213.615 203.267 213.616 203.121 213.607 202.975C213.621 202.892 213.635 202.798 213.65 202.704C213.629 202.519 213.597 202.335 213.554 202.154C213.554 202.154 213.567 202.071 213.502 202.007C213.471 201.898 213.43 201.792 213.381 201.689C213.194 201.193 212.899 200.746 212.517 200.378C212.132 200.02 211.675 199.749 211.177 199.581C209.17 198.744 205.488 200.424 202.418 203.717C199.349 207.01 197.934 210.797 198.864 212.781C199.077 213.231 199.377 213.634 199.748 213.967V213.967Z" fill="#64CF83"/>
<path opacity="0.3" d="M203.236 212.16C202.155 211.147 202.998 208.489 205.117 206.212C207.237 203.936 209.832 202.92 210.917 203.912C211.578 204.539 211.521 205.792 210.862 207.206C211.134 205.464 209.848 204.6 208.058 205.453C206.207 206.556 204.728 208.186 203.81 210.134C203.377 211.327 203.39 212.206 204.359 212.571C203.946 212.584 203.544 212.437 203.236 212.16V212.16Z" fill="black"/>
<path d="M181.278 158.642C181.993 153.306 183.763 148.165 186.485 143.519C185.998 146.222 188.588 149.417 195.219 152.195C200.637 154.453 205.939 156.436 209.779 157.784C210.356 157.992 210.893 158.183 211.401 158.348L210.049 162.283L208.413 161.739C204.566 160.432 199.167 158.734 193.509 157.187C186.562 155.331 182.551 156.244 181.278 158.642Z" fill="#64CF83"/>
<path opacity="0.2" d="M208.328 161.801C208.481 161.162 208.673 160.487 208.915 159.755C209.142 159.095 209.404 158.447 209.699 157.815L211.393 158.4L210.04 162.336L208.328 161.801Z" fill="black"/>
<path d="M211.09 167.791C211.454 167.916 211.842 167.959 212.225 167.914C212.309 167.911 212.392 167.903 212.475 167.889L212.569 167.904C212.701 167.879 212.829 167.838 212.951 167.782L213.126 167.692L213.405 167.543C214.907 166.256 216.038 164.591 216.681 162.721C217.325 160.85 217.458 158.842 217.067 156.903C217.033 156.806 216.995 156.711 216.951 156.618L216.863 156.433C216.797 156.316 216.721 156.204 216.637 156.099L216.565 156.012L216.4 155.837C216.122 155.57 215.789 155.368 215.423 155.246C215.076 155.106 214.701 155.048 214.328 155.075C212.773 155.11 210.852 157.279 209.81 160.322C208.767 163.366 208.937 166.246 210.14 167.236C210.416 167.483 210.739 167.671 211.09 167.791V167.791Z" fill="#64CF83"/>
<path opacity="0.3" d="M212.833 165.594C211.818 165.254 211.605 163.264 212.328 161.165C213.052 159.066 214.449 157.649 215.454 157.987C216.062 158.2 216.359 159.037 216.367 160.15C216.077 158.929 214.951 158.743 214.04 159.786C213.156 161.033 212.66 162.514 212.616 164.042C212.688 164.951 212.956 165.56 213.685 165.481C213.557 165.556 213.416 165.604 213.27 165.623C213.124 165.643 212.975 165.633 212.833 165.594V165.594Z" fill="black"/>
<path d="M187.772 133.299C185.596 127.992 185.085 122.15 186.307 116.546C187.218 119.339 192.988 121.128 204.505 120.608C213.892 120.184 222.949 119.547 229.447 119.002L232.196 118.78L232.588 123.116L229.845 123.361C223.339 123.958 214.32 124.9 205.002 126.116C193.585 127.634 188.225 130.399 187.772 133.299Z" fill="#64CF83"/>
<path opacity="0.2" d="M229.852 123.384C229.683 122.662 229.565 121.929 229.5 121.191C229.436 120.457 229.426 119.72 229.47 118.985L232.22 118.762L232.611 123.099L229.852 123.384Z" fill="black"/>
<path d="M237.333 130.774C237.918 130.718 238.484 130.541 238.996 130.253C239.107 130.191 239.215 130.122 239.317 130.047L239.459 129.962C239.621 129.835 239.772 129.694 239.909 129.541L240.105 129.315C240.199 129.191 240.293 129.067 240.391 128.922C241.632 127.063 242.263 123.784 241.977 120.138C241.692 116.491 240.437 113.377 238.882 111.766C238.774 111.649 238.659 111.539 238.538 111.434L238.302 111.237C238.137 111.118 237.965 111.009 237.787 110.911L237.62 110.885L237.278 110.746C236.727 110.532 236.136 110.44 235.546 110.475C234.978 110.521 234.426 110.69 233.929 110.971C231.78 112.003 230.437 116.218 230.869 121.117C231.3 126.015 233.347 129.948 235.642 130.584C236.186 130.767 236.762 130.832 237.333 130.774Z" fill="#64CF83"/>
<path opacity="0.3" d="M238.366 126.628C236.752 126.76 235.207 124.135 234.914 120.744C234.621 117.353 235.694 114.453 237.29 114.36C238.287 114.27 239.289 115.25 239.922 116.802C238.749 115.283 237.066 115.725 236.452 117.81C235.998 120.105 236.229 122.482 237.115 124.647C237.778 125.873 238.528 126.546 239.502 125.993C239.216 126.34 238.811 126.567 238.366 126.628V126.628Z" fill="black"/>
<path d="M183.59 107.464C179.615 103.012 176.676 97.734 174.986 92.01C176.89 94.3919 181.792 94.4204 189.731 90.6056C196.203 87.4913 202.351 84.2623 206.721 81.8778C207.386 81.5221 207.996 81.1791 208.569 80.8625L210.795 84.8766L208.955 85.9144C204.618 88.3576 198.631 91.8576 192.558 95.697C185.145 100.46 182.575 104.59 183.59 107.464Z" fill="#64CF83"/>
<path opacity="0.2" d="M208.996 85.9213C208.556 85.2906 208.147 84.6382 207.773 83.9666C207.382 83.2535 207.052 82.5606 206.762 81.8847C207.427 81.529 208.036 81.186 208.609 80.8695L210.836 84.8835L208.996 85.9213Z" fill="black"/>
<path d="M216.316 87.91C216.694 87.7035 217.02 87.4148 217.271 87.0652C217.336 86.9899 217.381 86.9113 217.435 86.8344C217.49 86.7574 217.447 86.7613 217.453 86.7196C217.526 86.5885 217.586 86.4514 217.635 86.3098L217.669 86.0907C217.687 85.9759 217.705 85.8611 217.723 85.7464C217.777 83.5274 217.239 81.3341 216.163 79.3924C215.088 77.4508 213.514 75.831 211.604 74.7002V74.7002L211.269 74.5838L211.05 74.5495C210.907 74.5108 210.76 74.4878 210.612 74.481L210.487 74.4615C210.399 74.4366 210.307 74.4223 210.216 74.4191C209.788 74.447 209.371 74.5679 208.995 74.7734C208.627 74.9796 208.306 75.2608 208.054 75.599C206.916 76.9282 207.289 80.1503 208.989 83.2912C210.69 86.4321 213.278 88.472 215.008 88.2079C215.461 88.2097 215.908 88.1078 216.316 87.91V87.91Z" fill="#64CF83"/>
<path opacity="0.3" d="M215.796 84.8142C214.765 85.3906 212.937 84.0896 211.73 81.9021C210.522 79.7145 210.388 77.4918 211.438 76.9291C212.082 76.5701 213.03 76.9321 213.934 77.7789C212.692 77.1143 211.701 77.9109 211.905 79.4818C212.291 81.163 213.168 82.6915 214.425 83.8731C215.235 84.5021 215.939 84.719 216.416 84.0561C216.37 84.2179 216.29 84.3684 216.184 84.4987C216.077 84.629 215.945 84.7363 215.796 84.8142V84.8142Z" fill="black"/>
<path d="M167.377 83.5208C163.603 81.4111 160.132 78.8013 157.057 75.762C158.63 76.6385 161.668 76.4828 164.501 73.4731C167.056 70.8048 169.156 68.2365 170.606 66.3468L171.211 65.5542L173.392 67.1884L172.784 68.0019C170.951 70.4786 169.285 73.0747 167.797 75.7731C165.638 79.6684 166.09 82.2508 167.377 83.5208Z" fill="#64CF83"/>
<path opacity="0.2" d="M172.784 68.0021C172.421 67.7742 172.045 67.5124 171.656 67.2166C171.29 66.9464 170.94 66.6561 170.606 66.3469L171.211 65.5543L173.392 67.1886L172.784 68.0021Z" fill="black"/>
<path d="M178.737 67.3928C178.933 67.1244 179.071 66.8187 179.144 66.4946L179.192 66.192C179.203 66.0748 179.203 65.9568 179.193 65.8395C179.189 65.7839 179.18 65.7288 179.165 65.6749C179.179 65.5914 179.139 65.4998 179.112 65.3993C178.456 63.8136 177.387 62.4323 176.017 61.3987C174.647 60.3651 173.025 59.7169 171.32 59.5213V59.5213C171.229 59.5184 171.138 59.5257 171.049 59.5432L170.893 59.5187C170.778 59.5422 170.666 59.5747 170.557 59.6159L170.465 59.655C170.401 59.6843 170.339 59.7174 170.279 59.7541C169.984 59.9052 169.728 60.1208 169.528 60.385C169.335 60.6467 169.197 60.9453 169.124 61.2624C168.739 62.5597 170.006 64.7137 172.233 66.3978C174.46 68.0819 176.887 68.6963 178.026 67.9764C178.297 67.8275 178.538 67.6296 178.737 67.3928Z" fill="#64CF83"/>
<path opacity="0.3" d="M177.389 65.4188C176.837 66.1449 175.138 65.8044 173.6 64.6342C172.062 63.4639 171.262 61.9494 171.813 61.2233C172.163 60.7649 172.959 60.729 173.851 61.0395C172.795 60.9599 172.301 61.8659 172.955 62.8767C173.743 63.9414 174.83 64.7475 176.078 65.1925C176.85 65.3774 177.416 65.3161 177.545 64.6949C177.582 64.9471 177.527 65.2042 177.389 65.4188V65.4188Z" fill="black"/>
<path opacity="0.1" d="M177.203 166.182C166.237 181.634 122.381 202.024 86.4349 172.486C50.4888 142.947 69.3078 96.326 80.0842 84.1366C73.5453 90.3205 68.3852 97.8149 64.9413 106.13C61.4974 114.445 59.8473 123.393 60.0988 132.389C60.3504 141.386 62.4979 150.228 66.401 158.337C70.3042 166.447 75.875 173.641 82.7493 179.45C89.6236 185.259 97.6465 189.551 106.294 192.047C114.941 194.543 124.017 195.185 132.929 193.932C141.842 192.679 150.389 189.559 158.013 184.777C165.637 179.994 172.165 173.656 177.172 166.177L177.203 166.182Z" fill="black"/>
<path d="M88.2328 144.228C90.6725 148.383 90.1158 153.244 86.9954 155.087C83.875 156.929 79.3505 155.036 76.9108 150.881C74.4711 146.727 75.0262 141.876 78.1465 140.033C81.2669 138.191 85.7931 140.074 88.2328 144.228Z" fill="#64CF83"/>
<path opacity="0.15" d="M88.2328 144.228C90.6725 148.383 90.1158 153.244 86.9954 155.087C83.875 156.929 79.3505 155.036 76.9108 150.881C74.4711 146.727 75.0262 141.876 78.1465 140.033C81.2669 138.191 85.7931 140.074 88.2328 144.228Z" fill="black"/>
<path opacity="0.15" d="M77.7156 143.611C78.2749 141.4 82.1464 141.385 84.6579 145.081C86.6372 148.009 86.9697 151.695 85.5947 153.243C85.3493 153.508 85.0538 153.721 84.7254 153.871C84.3969 154.021 84.042 154.103 83.6812 154.115C83.3205 154.126 82.9611 154.065 82.6239 153.936C82.2868 153.808 81.9786 153.613 81.7173 153.364C83.1349 153.8 84.4633 152.96 84.6048 150.823C84.6615 149.46 84.3873 148.104 83.8058 146.87C83.2244 145.636 82.3528 144.562 81.2657 143.738C79.8428 142.789 78.4434 142.784 77.7156 143.611Z" fill="black"/>
<path d="M163.767 129.184C162.595 124.512 164.485 120.008 167.996 119.157C171.507 118.305 175.314 121.369 176.491 126.01C177.668 130.651 175.782 135.198 172.273 136.039C168.764 136.88 164.945 133.889 163.767 129.184Z" fill="#64CF83"/>
<path opacity="0.15" d="M163.767 129.184C162.595 124.512 164.485 120.008 167.996 119.157C171.507 118.305 175.314 121.369 176.491 126.01C177.668 130.651 175.782 135.198 172.273 136.039C168.764 136.88 164.945 133.889 163.767 129.184Z" fill="black"/>
<path opacity="0.15" d="M173.684 132.754C172.524 134.71 168.799 133.647 167.431 129.404C166.356 126.029 167.071 122.411 168.815 121.304C169.126 121.118 169.47 120.996 169.829 120.944C170.188 120.892 170.553 120.912 170.904 121.003C171.255 121.094 171.584 121.253 171.872 121.472C172.161 121.691 172.403 121.965 172.585 122.279C171.334 121.463 169.833 121.902 169.129 123.876C168.694 125.169 168.578 126.548 168.792 127.896C169.005 129.243 169.542 130.519 170.357 131.614C171.404 132.985 172.8 133.353 173.684 132.754Z" fill="black"/>
<path d="M114.323 112.906C111.106 115.364 106.997 115.395 105.151 112.98C103.306 110.564 104.417 106.601 107.602 104.138C110.787 101.676 114.917 101.648 116.772 104.075C118.626 106.503 117.583 110.508 114.323 112.906Z" fill="#64CF83"/>
<path opacity="0.15" d="M114.323 112.906C111.106 115.364 106.997 115.395 105.151 112.98C103.306 110.564 104.417 106.601 107.602 104.138C110.787 101.676 114.917 101.648 116.772 104.075C118.626 106.503 117.583 110.508 114.323 112.906Z" fill="black"/>
<path opacity="0.15" d="M113.762 104.118C115.669 104.363 116.073 107.59 113.251 110.056C111.012 112.004 107.971 112.651 106.584 111.675C106.338 111.497 106.13 111.271 105.972 111.012C105.814 110.752 105.709 110.464 105.663 110.163C105.618 109.863 105.633 109.556 105.707 109.261C105.781 108.966 105.913 108.689 106.095 108.446C105.901 109.687 106.719 110.681 108.504 110.607C109.648 110.516 110.752 110.149 111.723 109.537C112.693 108.926 113.501 108.088 114.077 107.096C114.694 105.814 114.535 104.645 113.762 104.118Z" fill="black"/>
<path d="M121.695 148.486C126.491 148.989 130.066 152.306 129.694 155.914C129.323 159.522 125.135 162.042 120.348 161.55C115.562 161.059 111.967 157.729 112.339 154.121C112.71 150.513 116.898 147.993 121.695 148.486Z" fill="#64CF83"/>
<path opacity="0.15" d="M121.695 148.486C126.491 148.989 130.066 152.306 129.694 155.914C129.323 159.522 125.135 162.042 120.348 161.55C115.562 161.059 111.967 157.729 112.339 154.121C112.71 150.513 116.898 147.993 121.695 148.486Z" fill="black"/>
<path opacity="0.15" d="M114.967 156.594C113.522 154.829 115.796 151.7 120.258 151.874C123.785 152.008 126.949 153.924 127.391 155.949C127.459 156.305 127.455 156.67 127.38 157.025C127.305 157.379 127.161 157.715 126.955 158.013C126.75 158.311 126.487 158.565 126.182 158.76C125.878 158.956 125.537 159.089 125.181 159.152C126.387 158.272 126.484 156.695 124.861 155.319C123.796 154.463 122.54 153.879 121.2 153.615C119.859 153.352 118.476 153.417 117.166 153.806C115.54 154.364 114.729 155.52 114.967 156.594Z" fill="black"/>
<path d="M98.4908 99.0378C94.5076 101.75 89.6266 101.522 87.5824 98.5301C85.5382 95.5385 87.1181 90.9008 91.1012 88.1885C95.0843 85.4762 99.9653 85.7046 102.008 88.7067C104.051 91.7087 102.474 96.3255 98.4908 99.0378Z" fill="#64CF83"/>
<path opacity="0.15" d="M98.4908 99.0378C94.5076 101.75 89.6266 101.522 87.5824 98.5301C85.5382 95.5385 87.1181 90.9008 91.1012 88.1885C95.0843 85.4762 99.9653 85.7046 102.008 88.7067C104.051 91.7087 102.474 96.3255 98.4908 99.0378Z" fill="black"/>
<path opacity="0.15" d="M98.4053 88.5071C100.649 88.9219 100.942 92.7941 97.4034 95.5332C94.6162 97.7056 90.9674 98.279 89.3261 97.0177C89.0436 96.7904 88.8094 96.5089 88.6371 96.1899C88.4648 95.8708 88.358 95.5206 88.3228 95.1597C88.2876 94.7989 88.3248 94.4346 88.4322 94.0883C88.5396 93.742 88.7151 93.4206 88.9483 93.1429C88.6036 94.5961 89.5905 95.8726 91.6652 95.8655C93.0317 95.8324 94.3697 95.4681 95.5644 94.804C96.7591 94.14 97.7749 93.1959 98.5245 92.0529C99.4071 90.5769 99.2836 89.1788 98.4053 88.5071Z" fill="black"/>
<path d="M143.56 135.795C146.017 132.31 150.136 130.987 152.754 132.839C155.372 134.691 155.509 139.01 153.05 142.505C150.59 146.001 146.473 147.313 143.845 145.459C141.217 143.606 141.05 139.272 143.56 135.795Z" fill="#64CF83"/>
<path opacity="0.15" d="M143.56 135.795C146.017 132.31 150.136 130.987 152.754 132.839C155.372 134.691 155.509 139.01 153.05 142.505C150.59 146.001 146.473 147.313 143.845 145.459C141.217 143.606 141.05 139.272 143.56 135.795Z" fill="black"/>
<path opacity="0.15" d="M146.839 144.495C144.851 144.836 143.424 141.727 145.489 138.362C147.125 135.69 149.973 134.083 151.727 134.624C152.031 134.725 152.311 134.886 152.552 135.097C152.793 135.308 152.99 135.565 153.131 135.852C153.272 136.14 153.355 136.453 153.374 136.772C153.393 137.092 153.348 137.412 153.243 137.714C153.073 136.405 151.909 135.646 150.14 136.3C149.021 136.753 148.027 137.47 147.245 138.39C146.463 139.31 145.915 140.406 145.648 141.583C145.371 143.079 145.912 144.2 146.839 144.495Z" fill="black"/>
<path d="M149.663 105.015C144.233 101.12 142.207 94.658 145.143 90.5743C148.08 86.4906 154.848 86.3406 160.278 90.2355C165.708 94.1303 167.721 100.602 164.785 104.685C161.849 108.769 155.081 108.919 149.663 105.015Z" fill="#64CF83"/>
<path opacity="0.15" d="M149.663 105.015C144.233 101.12 142.207 94.658 145.143 90.5743C148.08 86.4906 154.848 86.3406 160.278 90.2355C165.708 94.1303 167.721 100.602 164.785 104.685C161.849 108.769 155.081 108.919 149.663 105.015Z" fill="black"/>
<path opacity="0.15" d="M163.341 99.9061C163.859 103.023 158.962 105.218 153.714 101.939C149.555 99.3442 147.081 94.8638 147.937 92.1224C148.1 91.6475 148.355 91.2098 148.689 90.8348C149.023 90.4599 149.428 90.1551 149.881 89.9383C150.333 89.7215 150.825 89.5971 151.326 89.5722C151.827 89.5474 152.329 89.6226 152.801 89.7936C150.742 90.0384 149.54 91.8492 150.549 94.6256C151.244 96.3857 152.355 97.9516 153.786 99.1897C155.218 100.428 156.927 101.301 158.769 101.735C161.114 102.187 162.837 101.356 163.341 99.9061Z" fill="black"/>
<path d="M104.7 168.254C107.991 169.698 109.792 172.876 108.699 175.356C107.606 177.836 104.064 178.682 100.763 177.237C97.462 175.791 95.6711 172.614 96.7641 170.134C97.8571 167.654 101.399 166.808 104.7 168.254Z" fill="#64CF83"/>
<path opacity="0.15" d="M104.7 168.254C107.991 169.698 109.792 172.876 108.699 175.356C107.606 177.836 104.064 178.682 100.763 177.237C97.462 175.791 95.6711 172.614 96.7641 170.134C97.8571 167.654 101.399 166.808 104.7 168.254Z" fill="black"/>
<path opacity="0.15" d="M98.064 172.486C97.4351 170.902 99.7755 169.194 102.91 170.336C105.388 171.237 107.201 173.316 107.057 174.854C107.024 175.122 106.938 175.38 106.804 175.615C106.67 175.85 106.491 176.056 106.278 176.221C106.064 176.386 105.82 176.508 105.56 176.578C105.299 176.649 105.027 176.667 104.759 176.632C105.809 176.273 106.237 175.174 105.401 173.825C104.835 172.976 104.072 172.275 103.178 171.784C102.283 171.292 101.283 171.024 100.263 171.002C98.9747 171.036 98.139 171.664 98.064 172.486Z" fill="black"/>
<path d="M135.692 167.807C140.401 166.469 145.046 168.275 146.042 171.819C147.038 175.363 144.034 179.329 139.317 180.654C134.599 181.98 129.961 180.197 128.967 176.643C127.972 173.088 130.972 169.143 135.692 167.807Z" fill="#64CF83"/>
<path opacity="0.15" d="M135.692 167.807C140.401 166.469 145.046 168.275 146.042 171.819C147.038 175.363 144.034 179.329 139.317 180.654C134.599 181.98 129.961 180.197 128.967 176.643C127.972 173.088 130.972 169.143 135.692 167.807Z" fill="black"/>
<path opacity="0.15" d="M132.368 177.997C130.342 176.868 131.323 173.056 135.599 171.544C138.994 170.343 142.702 170.965 143.881 172.721C144.077 173.031 144.21 173.377 144.271 173.739C144.333 174.102 144.322 174.472 144.239 174.83C144.156 175.188 144.003 175.526 143.789 175.824C143.575 176.123 143.304 176.375 142.991 176.568C143.79 175.282 143.301 173.763 141.237 173.088C139.909 172.682 138.502 172.604 137.137 172.86C135.772 173.116 134.489 173.698 133.397 174.556C132.079 175.675 131.765 177.069 132.368 177.997Z" fill="black"/>
<path d="M160.185 155.452C161.684 152.704 164.65 151.436 166.714 152.593C168.778 153.749 169.192 156.913 167.652 159.655C166.112 162.396 163.187 163.67 161.125 162.504C159.063 161.337 158.647 158.183 160.185 155.452Z" fill="#64CF83"/>
<path opacity="0.15" d="M160.185 155.452C161.684 152.704 164.65 151.436 166.714 152.593C168.778 153.749 169.192 156.913 167.652 159.655C166.112 162.396 163.187 163.67 161.125 162.504C159.063 161.337 158.647 158.183 160.185 155.452Z" fill="black"/>
<path opacity="0.15" d="M163.289 161.581C161.858 161.988 160.573 159.81 161.839 157.186C162.837 155.108 164.807 153.716 166.134 153.977C166.364 154.029 166.581 154.127 166.773 154.264C166.965 154.4 167.128 154.574 167.252 154.775C167.375 154.975 167.458 155.198 167.495 155.431C167.532 155.664 167.522 155.902 167.465 156.13C167.249 155.188 166.34 154.715 165.089 155.332C164.302 155.746 163.628 156.346 163.124 157.079C162.621 157.812 162.303 158.657 162.198 159.54C162.119 160.66 162.585 161.439 163.289 161.581Z" fill="black"/>
<path d="M122.885 86.2297C119.752 86.4454 117.084 84.7032 116.918 82.3472C116.752 79.9911 119.174 77.9006 122.305 77.6953C125.437 77.49 128.118 79.2129 128.272 81.5778C128.426 83.9426 126.029 86.0156 122.885 86.2297Z" fill="#64CF83"/>
<path opacity="0.15" d="M122.885 86.2297C119.752 86.4454 117.084 84.7032 116.918 82.3472C116.752 79.9911 119.174 77.9006 122.305 77.6953C125.437 77.49 128.118 79.2129 128.272 81.5778C128.426 83.9426 126.029 86.0156 122.885 86.2297Z" fill="black"/>
<path opacity="0.15" d="M126.316 80.2778C127.436 81.2543 126.328 83.4861 123.431 83.8991C121.149 84.2052 118.904 83.3199 118.377 82.0405C118.295 81.8194 118.257 81.5842 118.266 81.3485C118.275 81.1127 118.33 80.8811 118.43 80.6669C118.529 80.4528 118.669 80.2605 118.843 80.101C119.017 79.9415 119.221 79.8181 119.443 79.7379C118.778 80.4357 118.885 81.4572 120.13 82.1755C120.911 82.6057 121.784 82.84 122.675 82.8582C123.565 82.8764 124.447 82.678 125.245 82.28C126.189 81.7756 126.587 80.94 126.316 80.2778Z" fill="black"/>
<path d="M103.38 130.948C104.663 133.821 103.943 136.925 101.782 137.891C99.6217 138.858 96.8402 137.301 95.5576 134.428C94.275 131.556 94.9954 128.451 97.1663 127.486C99.3371 126.522 102.105 128.098 103.38 130.948Z" fill="#64CF83"/>
<path opacity="0.15" d="M103.38 130.948C104.663 133.821 103.943 136.925 101.782 137.891C99.6217 138.858 96.8402 137.301 95.5576 134.428C94.275 131.556 94.9954 128.451 97.1663 127.486C99.3371 126.522 102.105 128.098 103.38 130.948Z" fill="black"/>
<path opacity="0.15" d="M96.6161 129.773C97.1437 128.381 99.6552 128.656 101.004 131.239C102.075 133.277 102.021 135.674 101.013 136.585C100.834 136.737 100.627 136.852 100.403 136.924C100.179 136.996 99.9428 137.022 99.7085 137.003C99.4742 136.983 99.2461 136.917 99.0373 136.809C98.8285 136.701 98.6432 136.552 98.4919 136.372C99.3814 136.768 100.297 136.313 100.554 134.942C100.69 134.063 100.611 133.164 100.324 132.323C100.036 131.481 99.5493 130.722 98.9043 130.109C98.0566 129.378 97.1511 129.29 96.6161 129.773Z" fill="black"/>
<path d="M143.992 113.128C145.284 111.15 144.196 108.154 141.564 106.435C138.931 104.717 135.751 104.928 134.459 106.906C133.168 108.884 134.256 111.88 136.888 113.598C139.521 115.317 142.701 115.106 143.992 113.128Z" fill="#64CF83"/>
<path opacity="0.15" d="M143.992 113.128C145.284 111.15 144.196 108.154 141.564 106.435C138.931 104.717 135.751 104.928 134.459 106.906C133.168 108.884 134.256 111.88 136.888 113.598C139.521 115.317 142.701 115.106 143.992 113.128Z" fill="black"/>
<path opacity="0.15" d="M143.177 110.885C143.485 112.333 141.224 113.465 138.72 112.048C136.759 110.918 135.456 108.855 135.81 107.553C135.876 107.327 135.987 107.117 136.135 106.934C136.284 106.752 136.467 106.6 136.674 106.488C136.881 106.377 137.109 106.307 137.343 106.284C137.577 106.26 137.814 106.283 138.039 106.352C137.084 106.512 136.551 107.391 137.088 108.672C137.45 109.485 138.003 110.198 138.7 110.75C139.398 111.302 140.219 111.676 141.093 111.842C142.211 112.006 143.066 111.594 143.177 110.885Z" fill="black"/>
<path d="M80.4106 116.584C79.5771 119.661 77.0651 121.577 74.7792 120.952C72.4932 120.328 71.3209 117.365 72.1478 114.331C72.9748 111.296 75.4917 109.349 77.7672 109.972C80.0427 110.595 81.2359 113.56 80.4106 116.584Z" fill="#64CF83"/>
<path opacity="0.15" d="M80.4106 116.584C79.5771 119.661 77.0651 121.577 74.7792 120.952C72.4932 120.328 71.3209 117.365 72.1478 114.331C72.9748 111.296 75.4917 109.349 77.7672 109.972C80.0427 110.595 81.2359 113.56 80.4106 116.584Z" fill="black"/>
<path opacity="0.15" d="M75.9087 111.402C77.191 110.651 78.9507 112.455 78.3771 115.305C77.9172 117.563 76.3489 119.391 75.0023 119.459C74.7635 119.471 74.5247 119.434 74.3003 119.352C74.0758 119.269 73.8705 119.142 73.6964 118.978C73.5224 118.814 73.3833 118.617 73.2875 118.398C73.1917 118.178 73.1412 117.942 73.139 117.703C73.5817 118.563 74.5823 118.795 75.6427 117.891C76.3108 117.301 76.8253 116.558 77.1418 115.725C77.4582 114.891 77.5671 113.994 77.459 113.109C77.2794 112.001 76.6201 111.364 75.9087 111.402Z" fill="black"/>
<path d="M132.466 133.55C135.11 130.386 134.29 125.344 130.633 122.289C126.977 119.233 121.869 119.322 119.225 122.486C116.581 125.65 117.402 130.692 121.058 133.747C124.715 136.802 129.822 136.714 132.466 133.55Z" fill="#64CF83"/>
<path opacity="0.15" d="M132.466 133.55C135.11 130.386 134.29 125.344 130.633 122.289C126.977 119.233 121.869 119.322 119.225 122.486C116.581 125.65 117.402 130.692 121.058 133.747C124.715 136.802 129.822 136.714 132.466 133.55Z" fill="black"/>
<path opacity="0.15" d="M123.08 122.665C120.528 123.538 119.264 127.114 121.424 130.594C123.584 134.074 129.837 135.03 131.342 131.556C130.015 131.943 128.609 131.974 127.266 131.644C125.923 131.314 124.691 130.635 123.694 129.677C121.373 127.294 121.383 124.292 123.08 122.665Z" fill="black"/>
</g>
</svg>
