<svg width="27" height="37" viewBox="0 0 27 37" fill="none" xmlns="http://www.w3.org/2000/svg">
<path d="M11.7682 11C12.538 9.66667 14.4625 9.66667 15.2323 11L21.7275 22.25C22.4973 23.5833 21.535 25.25 19.9954 25.25H7.00505C5.46545 25.25 4.5032 23.5833 5.273 22.25L11.7682 11Z" stroke="#FF0000" stroke-width="2"/>
<path d="M14.6081 14.2727H12.7118L12.8822 20.3835H14.4419L14.6081 14.2727ZM13.662 23.1108C14.2075 23.1108 14.6805 22.6548 14.6848 22.0881C14.6805 21.5298 14.2075 21.0739 13.662 21.0739C13.0995 21.0739 12.6351 21.5298 12.6393 22.0881C12.6351 22.6548 13.0995 23.1108 13.662 23.1108Z" fill="#FF0000"/>
</svg>
