<svg width="323" height="347" viewBox="0 0 323 347" fill="none" xmlns="http://www.w3.org/2000/svg">
<g opacity="0.2">
<path d="M249.651 153.05C246.001 156.189 243.174 160.173 241.42 164.656C243.176 162.955 247.429 163.586 254.041 167.784C259.529 171.241 264.577 174.726 268.199 177.278L269.735 178.348L271.875 175.33L270.366 174.232C266.745 171.653 261.806 167.949 256.785 163.97C250.611 159.087 248.609 155.3 249.651 153.05Z" fill="#64CF83"/>
<path opacity="0.2" d="M269.954 173.985C269.526 174.431 269.132 174.908 268.774 175.412C268.41 175.915 268.089 176.447 267.814 177.003L269.707 178.348L271.847 175.33L269.954 173.985Z" fill="black"/>
<path d="M276.21 172.804C276.504 173.013 276.747 173.285 276.923 173.6C276.938 173.672 276.938 173.747 276.923 173.819V173.819C276.923 173.819 276.923 174.039 276.923 174.176C276.923 174.313 276.923 174.176 276.923 174.368C276.923 174.56 276.923 174.56 276.923 174.67C276.86 176.569 276.187 178.397 275.003 179.883C273.979 181.473 272.482 182.702 270.723 183.395V183.395H270.421H269.515C269.159 183.334 268.821 183.194 268.528 182.983C268.234 182.774 267.99 182.502 267.814 182.188C266.991 180.981 267.595 178.292 269.378 175.795C271.162 173.298 273.466 171.844 274.866 172.228C275.358 172.295 275.822 172.494 276.21 172.804V172.804Z" fill="#64CF83"/>
<path opacity="0.3" d="M275.47 175.548C274.647 174.972 273.001 175.877 271.766 177.606C270.531 179.335 270.229 181.173 271.025 181.776C271.821 182.38 272.369 181.776 273.22 181.283C272.095 181.722 271.354 180.953 271.656 179.664C272.138 178.287 273.016 177.084 274.18 176.207C274.921 175.768 275.525 175.63 275.881 176.207C275.861 176.075 275.814 175.948 275.743 175.835C275.672 175.722 275.579 175.624 275.47 175.548V175.548Z" fill="black"/>
<path d="M233.05 172.806C228.478 174.306 224.285 176.777 220.758 180.05C223.063 179.172 225.121 178.87 228.989 184.687C232.172 189.406 232.529 189.653 234.477 192.918C234.806 193.412 235.08 193.906 235.355 194.345L238.537 192.452L237.687 191.025C235.711 187.595 235.574 187.238 232.968 182.163C229.867 175.962 231.157 174.315 233.05 172.806Z" fill="#64CF83"/>
<path opacity="0.2" d="M237.468 190.503C236.889 190.733 236.329 191.008 235.794 191.326C235.252 191.639 234.738 191.997 234.257 192.396L235.465 194.399L238.647 192.506L237.468 190.503Z" fill="black"/>
<path d="M244.932 192.011C245.162 192.376 245.303 192.789 245.343 193.218V193.52C245.37 193.665 245.37 193.814 245.343 193.959C245.359 194.032 245.359 194.106 245.343 194.179C245.352 194.298 245.352 194.417 245.343 194.535C244.263 196.498 242.673 198.132 240.742 199.267C238.81 200.402 236.608 200.995 234.368 200.983H234.012H233.792L233.381 200.819L233.161 200.654C232.799 200.417 232.498 200.097 232.283 199.721C232.057 199.365 231.916 198.961 231.872 198.541C231.57 196.813 233.518 194.206 236.646 192.368C239.774 190.53 243.011 190.063 244.356 191.161C244.594 191.41 244.788 191.698 244.932 192.011Z" fill="#64CF83"/>
<path opacity="0.3" d="M242.901 194.453C242.298 193.438 240.158 193.63 237.908 194.892C235.658 196.154 234.506 198.02 235.164 199.063C235.521 199.694 236.536 199.858 237.743 199.584C236.344 199.584 235.877 198.349 236.865 197.087C238.036 195.817 239.568 194.936 241.255 194.563C242.27 194.426 242.984 194.563 243.066 195.414C243.104 195.251 243.108 195.082 243.08 194.917C243.052 194.752 242.991 194.595 242.901 194.453V194.453Z" fill="black"/>
<path d="M208.632 183.78C204.602 183.433 200.543 183.9 196.697 185.152C198.755 185.152 200.703 187.622 201.636 192.917C202.063 194.503 202.384 196.117 202.596 197.746C202.596 198.213 202.596 198.624 202.76 199.036L205.861 198.679C205.861 198.267 205.861 197.856 205.861 197.389C205.68 195.759 205.634 194.116 205.724 192.478C205.312 187.155 206.629 184.384 208.632 183.78Z" fill="#64CF83"/>
<path opacity="0.2" d="M205.641 196.786C205.12 196.746 204.597 196.746 204.077 196.786C203.556 196.839 203.042 196.94 202.54 197.088C202.54 197.774 202.54 198.432 202.76 199.036L205.86 198.679C205.805 198.13 205.723 197.499 205.641 196.786Z" fill="black"/>
<path d="M209.838 200.106C209.892 200.405 209.892 200.712 209.838 201.011C209.847 201.075 209.847 201.14 209.838 201.203C209.805 201.314 209.749 201.417 209.674 201.505V201.505L209.509 201.697C208.282 202.715 206.765 203.32 205.174 203.426C203.604 203.678 201.994 203.439 200.565 202.74V202.74L200.372 202.603L200.153 202.356V202.191C199.98 201.939 199.876 201.646 199.851 201.341C199.782 201.052 199.782 200.751 199.851 200.463C200.153 199.255 202.183 198.13 204.735 197.719C207.287 197.307 209.509 198.048 210.085 199.173C210.077 199.499 209.992 199.819 209.838 200.106V200.106Z" fill="#64CF83"/>
<path opacity="0.3" d="M207.809 201.066C207.809 200.243 206.19 199.722 204.434 199.914C202.678 200.106 201.306 200.984 201.389 201.807C201.471 202.63 202.075 202.74 202.925 202.905C202.047 202.466 202.075 201.56 203.09 201.012C204.217 200.541 205.459 200.417 206.657 200.655C207.37 200.847 207.782 201.176 207.617 201.725C207.756 201.534 207.823 201.302 207.809 201.066V201.066Z" fill="black"/>
<path d="M136.525 103.664C138.169 100.405 139.616 97.052 140.861 93.6215C140.202 94.9934 138.775 96.5298 137.266 96.3652C136.143 96.1814 135.04 95.8873 133.974 95.4872L133.645 95.3226L132.712 97.4627H133.041C134.047 97.939 134.972 98.5684 135.785 99.3285C136.337 99.8883 136.704 100.604 136.837 101.38C136.969 102.155 136.861 102.952 136.525 103.664V103.664Z" fill="#64CF83"/>
<path opacity="0.2" d="M133.507 97.7085C133.672 97.4067 133.837 97.05 134.001 96.6659C134.158 96.3169 134.295 95.9597 134.413 95.5958L133.645 95.2391L132.712 97.3793L133.507 97.7085Z" fill="black"/>
<path opacity="0.3" d="M129.036 97.7351C129.749 98.0369 130.847 97.0766 131.505 95.5676C132.164 94.0585 132.081 92.6318 131.505 92.3025C130.929 91.9733 130.49 92.3025 129.941 93.0159C130.71 92.522 131.423 93.0159 131.368 94.0036C131.227 95.1202 130.76 96.1703 130.024 97.0217C129.557 97.4882 129.091 97.6802 128.761 97.2687C128.793 97.4523 128.891 97.6181 129.036 97.7351Z" fill="black"/>
<path d="M149.175 81.6592C153.359 79.3136 156.997 76.1058 159.848 72.2482C157.763 73.5377 155.815 74.2511 151.013 69.5044C147.09 65.5534 146.706 65.4162 144.127 62.5353L143.056 61.3281L140.313 63.77L141.383 65.0047C143.907 67.9131 144.127 68.2423 147.529 72.6049C151.672 77.9003 150.711 79.766 149.175 81.6592Z" fill="#64CF83"/>
<path opacity="0.2" d="M141.822 65.4429C142.348 65.1122 142.844 64.7357 143.303 64.3179C143.767 63.9138 144.199 63.4734 144.593 63.0009L143.056 61.2449L140.313 63.6869L141.822 65.4429Z" fill="black"/>
<path d="M134.193 65.3609C133.916 65.0273 133.702 64.6461 133.562 64.2359V63.9616C133.562 63.7969 133.562 63.6598 133.562 63.4951C133.562 63.3305 133.562 63.3579 133.562 63.2756C133.562 63.1933 133.562 63.0561 133.562 62.9189C134.167 60.7566 135.433 58.8377 137.184 57.4315C138.789 55.8574 140.856 54.8383 143.083 54.5231H143.686H144.125H144.372C144.769 54.6927 145.124 54.9453 145.415 55.2639C145.698 55.5783 145.905 55.9539 146.019 56.3614C146.65 58.0076 145.223 60.916 142.507 63.3305C139.79 65.745 136.717 66.7876 135.153 66.0742C134.785 65.91 134.457 65.6664 134.193 65.3609V65.3609Z" fill="#64CF83"/>
<path opacity="0.3" d="M135.73 62.5883C136.498 63.4937 138.666 62.8627 140.559 61.2164C142.452 59.5702 143.303 57.485 142.507 56.607C141.711 55.729 141.026 56.0582 139.763 56.607C141.163 56.3875 141.821 57.4575 141.108 58.8843C140.182 60.3347 138.858 61.4874 137.294 62.2042C136.306 62.5334 135.566 62.506 135.319 61.7103C135.326 61.8766 135.366 62.0397 135.437 62.1904C135.507 62.3411 135.607 62.4763 135.73 62.5883V62.5883Z" fill="black"/>
<path d="M171.316 66.3203C175.336 65.8762 179.231 64.6555 182.785 62.726C180.727 63.0278 178.395 61.0798 176.502 56.141C175.779 54.6981 175.164 53.2032 174.664 51.6687C174.499 51.2297 174.389 50.8182 174.28 50.4615L171.289 51.3944C171.289 51.7785 171.536 52.1626 171.646 52.6016C172.115 54.1564 172.472 55.7426 172.716 57.3483C173.978 62.4791 173.155 65.4149 171.316 66.3203Z" fill="#64CF83"/>
<path opacity="0.2" d="M171.865 53.2607C172.388 53.1913 172.902 53.0719 173.402 52.9041C173.901 52.7501 174.387 52.5574 174.856 52.3279C174.636 51.6694 174.444 51.0383 174.28 50.4621L171.289 51.395C171.481 52.0809 171.673 52.6022 171.865 53.2607Z" fill="black"/>
<path d="M167.147 50.7919C167.065 50.4957 167.065 50.1828 167.147 49.8865C167.133 49.8232 167.133 49.7578 167.147 49.6944V49.6944C167.135 49.5941 167.135 49.4929 167.147 49.3926V49.1731C168.162 47.9335 169.546 47.0494 171.098 46.6489C172.592 46.0877 174.227 46.0204 175.762 46.4568H175.981H176.146L176.393 46.6215H176.53C176.727 46.8496 176.875 47.116 176.965 47.404C177.055 47.692 177.084 47.9953 177.051 48.2951C177.051 49.5298 175.213 51.0389 172.744 51.8071C171.87 52.2117 170.907 52.3863 169.947 52.3142C168.986 52.2422 168.06 51.926 167.256 51.3956C167.19 51.201 167.153 50.9975 167.147 50.7919V50.7919Z" fill="#64CF83"/>
<path opacity="0.3" d="M168.929 49.338C169.176 50.1611 170.767 50.3806 172.468 49.8319C174.169 49.2831 175.349 48.2131 175.075 47.4174C174.8 46.6217 174.252 46.6217 173.374 46.6217C174.334 46.8961 174.471 47.8015 173.593 48.5148C172.567 49.1932 171.365 49.5557 170.136 49.5575C169.395 49.5575 168.929 49.2557 169.011 48.6795C168.904 48.8815 168.874 49.1158 168.929 49.338V49.338Z" fill="black"/>
<path d="M195.598 61.1633C200.12 62.8252 204.975 63.3803 209.755 62.7821C207.396 62.0687 205.887 58.1452 206.353 50.4627C206.737 44.207 207.313 38.1982 207.78 34.0003C207.78 33.3418 207.78 32.7382 207.972 32.1894L204.295 31.7504C204.295 32.3266 204.295 32.9302 204.076 33.5887C203.555 37.8964 202.731 43.9052 201.689 50.0512C200.399 57.569 198.067 60.9987 195.598 61.1633Z" fill="#64CF83"/>
<path opacity="0.2" d="M204.022 33.944C204.626 34.1006 205.24 34.2107 205.861 34.2733C206.481 34.3262 207.105 34.3262 207.726 34.2733C207.726 33.4501 207.809 32.6819 207.973 31.9685L204.297 31.5295C204.214 32.3252 204.132 33.1209 204.022 33.944Z" fill="black"/>
<path d="M198.645 27.9354C198.69 27.4861 198.841 27.0538 199.084 26.6733C199.119 26.5795 199.176 26.4951 199.249 26.4264C199.249 26.4264 199.249 26.4264 199.249 26.4264L199.578 26.0971L199.77 25.9325L200.072 25.713C202.216 24.7601 204.577 24.4001 206.908 24.6703C209.239 24.9406 211.454 25.8313 213.324 27.2495V27.2495L213.571 27.5239L213.708 27.7159C213.81 27.8403 213.893 27.979 213.955 28.1275C213.955 28.1275 213.955 28.1275 213.955 28.1275V28.4019C214.052 28.8447 214.052 29.3035 213.955 29.7463C213.896 30.1926 213.747 30.6221 213.516 31.0084C212.693 32.6272 209.4 33.5875 205.614 33.1485C201.828 32.7095 198.81 31.0359 198.371 29.2524C198.376 28.7998 198.469 28.3524 198.645 27.9354V27.9354Z" fill="#64CF83"/>
<path opacity="0.3" d="M201.882 27.1958C201.717 28.458 203.72 29.7201 206.354 29.9396C208.988 30.1591 211.21 29.4457 211.347 28.211C211.347 27.4428 210.689 26.6745 209.509 26.1258C210.661 27.0586 210.277 28.3756 208.659 28.8695C206.867 29.1802 205.024 28.951 203.363 28.211C202.43 27.6897 201.936 27.0861 202.375 26.3453C202.24 26.4468 202.127 26.5744 202.042 26.7205C201.957 26.8666 201.903 27.0282 201.882 27.1958V27.1958Z" fill="black"/>
<path d="M221.279 66.6508C224.862 69.4408 228.791 71.7556 232.968 73.5376C231.102 72.1657 230.471 69.5592 232.172 65.91C233.571 62.9468 235.053 60.1756 236.178 58.2275L236.644 57.4044L233.626 55.621C233.462 55.8679 233.324 56.1423 233.132 56.4167C231.952 58.3647 230.251 60.9987 228.331 63.6601C225.971 66.8703 223.392 67.6111 221.279 66.6508Z" fill="#64CF83"/>
<path opacity="0.2" d="M232.859 56.9094C233.298 57.2386 233.792 57.5679 234.313 57.8971L235.905 58.7202C236.152 58.2538 236.426 57.8148 236.646 57.4032L233.627 55.6198C233.518 56.0039 233.134 56.4429 232.859 56.9094Z" fill="black"/>
<path d="M231.294 51.5052C231.47 51.2302 231.693 50.9886 231.953 50.7918H232.145H232.447H232.611H232.886C234.575 50.6919 236.251 51.1446 237.66 52.0814C239.138 52.8832 240.335 54.1184 241.09 55.6208C241.113 55.7014 241.113 55.7871 241.09 55.8678C241.102 55.922 241.102 55.9782 241.09 56.0324C241.103 56.1417 241.103 56.2523 241.09 56.3616V56.6634C241.056 56.9835 240.953 57.2925 240.788 57.5689C240.63 57.8485 240.415 58.0916 240.157 58.2823C239.114 59.1054 236.7 58.7487 234.34 57.3768C231.98 56.0049 230.526 54.0295 230.746 52.7399C230.823 52.289 231.011 51.8646 231.294 51.5052Z" fill="#64CF83"/>
<path opacity="0.3" d="M233.518 52.0817C233.079 52.85 234.012 54.2493 235.631 55.2096C237.25 56.1699 238.951 56.3071 239.39 55.5388C239.829 54.7706 239.39 54.3316 238.786 53.6456C239.28 54.5785 238.786 55.3193 237.469 55.1273C236.212 54.8161 235.075 54.138 234.204 53.1792C233.765 52.5481 233.601 51.9994 234.204 51.6701C234.066 51.6816 233.932 51.7247 233.813 51.7961C233.694 51.8674 233.593 51.9652 233.518 52.0817V52.0817Z" fill="black"/>
<path d="M242.022 82.1258C243.527 86.7466 246.397 90.8027 250.254 93.7593C249.321 91.4545 252.065 87.1194 259.747 81.1106C261.585 79.7113 265.454 76.0896 269.926 72.8794L271.819 71.535L269.679 68.5169L267.786 69.8613C263.259 73.0441 258.375 76.4463 257.031 77.3243C248.882 82.6197 243.888 83.7721 242.022 82.1258Z" fill="#64CF83"/>
<path opacity="0.2" d="M267.814 69.8335C268.083 70.3931 268.405 70.9259 268.774 71.4248C269.132 71.9288 269.526 72.4057 269.954 72.8516L271.847 71.5071L269.707 68.489L267.814 69.8335Z" fill="black"/>
<path d="M268.553 60.9709C268.952 60.6788 269.412 60.4817 269.898 60.3947H270.227H270.364C270.538 60.3809 270.712 60.3809 270.886 60.3947H271.133H271.544C273.952 61.3346 275.999 63.0162 277.388 65.1962C279.003 67.2204 279.918 69.7141 279.995 72.3025V72.3025C279.995 72.3025 279.995 72.5769 279.995 72.7141C279.995 72.8513 279.995 72.8787 279.995 72.961C279.965 73.1296 279.919 73.2949 279.858 73.4549V73.5921C279.823 73.6887 279.777 73.7808 279.721 73.8665C279.467 74.294 279.131 74.667 278.733 74.9639C278.342 75.2507 277.892 75.4474 277.416 75.5402C275.468 76.0615 272.285 74.086 269.87 70.6837C267.456 67.2815 266.605 63.6323 267.73 61.9586C267.944 61.5833 268.223 61.2488 268.553 60.9709Z" fill="#64CF83"/>
<path opacity="0.3" d="M271.518 63.0567C270.393 63.8524 270.832 66.404 272.506 68.7636C274.18 71.1233 276.457 72.3579 277.555 71.5074C278.241 71.0135 278.35 69.8337 277.911 68.4893C277.911 70.1081 276.649 70.7391 275.168 69.7514C273.621 68.5156 272.468 66.8569 271.848 64.9773C271.601 63.7975 271.71 62.9744 272.643 62.7823C272.447 62.7517 272.247 62.7602 272.053 62.8073C271.86 62.8544 271.679 62.9391 271.518 63.0567V63.0567Z" fill="black"/>
<path d="M254.287 103.717C254.24 108.764 255.25 113.764 257.25 118.396C257.25 115.817 259.994 113.129 266.908 111.318C272.395 109.836 271.929 110.056 275.825 109.26L277.471 108.903L276.703 105.089L275.057 105.419C271.133 106.187 271.627 105.693 265.92 106.489C258.951 107.449 255.192 106.132 254.287 103.717Z" fill="#64CF83"/>
<path opacity="0.2" d="M274.947 105.446C274.947 106.05 275.112 106.709 275.221 107.367C275.347 108.008 275.512 108.64 275.715 109.26L277.471 108.904L276.703 105.09L274.947 105.446Z" fill="black"/>
<path d="M278.571 100.123C278.934 100.054 279.306 100.054 279.668 100.123H279.888C280.008 100.156 280.119 100.212 280.217 100.288H280.382L280.601 100.48C281.847 101.885 282.698 103.595 283.069 105.436C283.44 107.277 283.318 109.183 282.714 110.961L282.549 111.208V111.373L282.302 111.647C282.239 111.634 282.174 111.634 282.11 111.647C281.808 111.848 281.474 111.997 281.123 112.086C280.771 112.168 280.405 112.168 280.053 112.086C278.598 111.867 277.062 109.589 276.458 106.599C275.855 103.608 276.458 100.892 277.638 100.123C277.947 100.07 278.262 100.07 278.571 100.123Z" fill="#64CF83"/>
<path opacity="0.3" d="M279.942 102.429C278.954 102.621 278.487 104.459 278.926 106.517C279.365 108.575 280.463 110.111 281.451 109.919C282.438 109.727 282.466 109.041 282.603 107.999C282.164 109.096 281.066 109.124 280.353 107.999C279.673 106.711 279.396 105.248 279.557 103.801C279.722 102.978 280.051 102.429 280.737 102.594C280.503 102.439 280.218 102.38 279.942 102.429V102.429Z" fill="black"/>
<path d="M257.361 131.648C256.359 135.156 255.562 138.72 254.974 142.321C255.385 140.867 256.483 139.083 258.019 139.028C259.16 138.987 260.302 139.079 261.422 139.303H261.778L262.272 137.053H261.943C260.837 136.795 259.781 136.36 258.815 135.763C258.184 135.306 257.706 134.667 257.447 133.932C257.187 133.197 257.157 132.4 257.361 131.648V131.648Z" fill="#64CF83"/>
<path opacity="0.2" d="M261.448 136.891C261.448 137.248 261.228 137.632 261.146 138.016C261.064 138.4 261.009 138.784 260.954 139.168L261.777 139.333L262.271 137.083L261.448 136.891Z" fill="black"/>
<path d="M265.59 134.011C265.901 134.067 266.193 134.199 266.441 134.395V134.395L266.633 134.614C266.623 134.687 266.623 134.761 266.633 134.834V134.834C267.069 136.219 267.132 137.694 266.814 139.111C266.496 140.528 265.809 141.835 264.822 142.9V142.9H264.63H264.356H264.191C263.91 142.955 263.621 142.955 263.341 142.9C263.074 142.827 262.823 142.706 262.6 142.544C261.667 141.94 261.283 139.8 261.804 137.523C262.325 135.245 263.533 133.489 264.548 133.325C264.971 133.41 265.344 133.656 265.59 134.011V134.011Z" fill="#64CF83"/>
<path opacity="0.3" d="M265.838 136.04C265.07 135.876 264.165 137.028 263.808 138.62C263.451 140.211 263.808 141.638 264.549 141.802C265.289 141.967 265.536 141.5 265.948 140.815C265.317 141.446 264.521 141.144 264.357 140.101C264.277 138.978 264.545 137.857 265.125 136.891C265.509 136.342 265.92 136.095 266.332 136.397C266.278 136.307 266.207 136.229 266.122 136.168C266.037 136.106 265.94 136.063 265.838 136.04V136.04Z" fill="black"/>
<path d="M225.89 99.1092C227.975 103.335 232.228 105.475 235.411 103.911C238.594 102.347 239.499 97.6276 237.386 93.4022C235.274 89.1768 231.048 87.0367 227.866 88.6007C224.683 90.1646 223.778 94.8564 225.89 99.1092Z" fill="#64CF83"/>
<path opacity="0.1" d="M225.89 99.1092C227.975 103.335 232.228 105.475 235.411 103.911C238.594 102.347 239.499 97.6276 237.386 93.4022C235.274 89.1768 231.048 87.0367 227.866 88.6007C224.683 90.1646 223.778 94.8564 225.89 99.1092Z" fill="black"/>
<path opacity="0.25" d="M231.02 90.1636C228.907 89.4228 226.822 92.6056 228.495 96.6114C229.812 99.8216 232.666 102.099 234.669 101.77C235.359 101.63 235.969 101.23 236.372 100.653C236.776 100.076 236.942 99.3654 236.836 98.6692C236.452 100.069 235.026 100.7 233.215 99.6844C232.064 98.9996 231.098 98.0445 230.4 96.9018C229.701 95.7591 229.293 94.4633 229.209 93.1269C229.181 91.4532 229.95 90.3008 231.02 90.1636Z" fill="black"/>
<path d="M199.385 142.624C195.406 142.844 192.333 145.368 192.498 148.413C192.663 151.459 196.01 153.627 199.961 153.407C203.912 153.188 206.985 150.663 206.82 147.645C206.656 144.627 203.336 142.405 199.385 142.624Z" fill="#64CF83"/>
<path opacity="0.1" d="M199.385 142.624C195.406 142.844 192.333 145.368 192.498 148.413C192.663 151.459 196.01 153.627 199.961 153.407C203.912 153.188 206.985 150.663 206.82 147.645C206.656 144.627 203.336 142.405 199.385 142.624Z" fill="black"/>
<path opacity="0.25" d="M204.572 149.541C205.834 148.142 204.078 145.48 200.429 145.453C197.521 145.453 194.941 146.852 194.393 148.498C194.319 148.789 194.305 149.09 194.349 149.386C194.394 149.682 194.497 149.966 194.653 150.222C194.809 150.477 195.014 150.699 195.257 150.874C195.5 151.05 195.775 151.175 196.066 151.242C195.134 150.474 195.106 149.184 196.505 148.114C197.411 147.455 198.464 147.025 199.573 146.862C200.682 146.7 201.814 146.809 202.871 147.181C204.188 147.675 204.819 148.663 204.572 149.541Z" fill="black"/>
<path d="M196.422 163.01C191.73 163.531 188.191 166.797 188.63 170.309C189.069 173.821 193.13 176.29 197.794 175.796C202.459 175.302 206.025 172.01 205.614 168.47C205.202 164.931 201.114 162.489 196.422 163.01Z" fill="#64CF83"/>
<path opacity="0.1" d="M196.422 163.01C191.73 163.531 188.191 166.797 188.63 170.309C189.069 173.821 193.13 176.29 197.794 175.796C202.459 175.302 206.025 172.01 205.614 168.47C205.202 164.931 201.114 162.489 196.422 163.01Z" fill="black"/>
<path opacity="0.25" d="M203.033 170.913C204.46 169.184 202.21 166.111 197.847 166.303C194.39 166.468 191.29 168.361 190.878 170.336C190.765 171.037 190.927 171.754 191.332 172.337C191.736 172.92 192.35 173.324 193.046 173.464C191.866 172.586 191.756 171.05 193.348 169.705C194.384 168.863 195.61 168.285 196.92 168.022C198.23 167.759 199.584 167.819 200.865 168.196C202.484 168.745 203.335 169.843 203.033 170.913Z" fill="black"/>
<path d="M206.63 106.956C210.663 107.998 214.559 106.352 215.355 103.307C216.151 100.261 213.489 96.9685 209.429 95.9533C205.368 94.9381 201.499 96.5295 200.703 99.575C199.908 102.621 202.569 106.023 206.63 106.956Z" fill="#64CF83"/>
<path opacity="0.1" d="M206.63 106.956C210.663 107.998 214.559 106.352 215.355 103.307C216.151 100.261 213.489 96.9685 209.429 95.9533C205.368 94.9381 201.499 96.5295 200.703 99.575C199.908 102.621 202.569 106.023 206.63 106.956Z" fill="black"/>
<path opacity="0.25" d="M203.582 98.4508C201.881 99.466 202.787 102.704 206.326 103.938C207.485 104.443 208.766 104.6 210.013 104.39C211.26 104.181 212.419 103.614 213.35 102.758C213.67 102.213 213.76 101.562 213.6 100.95C213.441 100.338 213.045 99.8138 212.499 99.4934C213.213 100.591 212.829 101.88 211.1 102.511C209.982 102.895 208.787 102.998 207.619 102.812C206.452 102.625 205.348 102.155 204.405 101.441C203.335 100.454 203.061 99.2739 203.582 98.4508Z" fill="black"/>
<path d="M230.773 126.163C229.182 132.501 231.788 138.592 236.562 139.881C241.337 141.171 246.495 136.891 248.059 130.525C249.623 124.16 247.016 118.096 242.242 116.806C237.468 115.517 232.31 119.715 230.773 126.163Z" fill="#64CF83"/>
<path opacity="0.1" d="M230.773 126.163C229.182 132.501 231.788 138.592 236.562 139.881C241.337 141.171 246.495 136.891 248.059 130.525C249.623 124.16 247.016 118.096 242.242 116.806C237.468 115.517 232.31 119.715 230.773 126.163Z" fill="black"/>
<path opacity="0.25" d="M244.163 121.196C242.571 118.452 237.55 120.016 235.712 125.778C234.258 130.36 235.273 135.271 237.633 136.753C238.057 137.002 238.526 137.165 239.014 137.231C239.501 137.297 239.997 137.265 240.472 137.137C240.947 137.009 241.392 136.788 241.781 136.487C242.169 136.185 242.494 135.809 242.736 135.381C241.062 136.506 239.004 135.93 237.989 133.213C237.386 131.462 237.218 129.59 237.5 127.759C237.782 125.928 238.506 124.194 239.608 122.705C241.062 120.922 242.901 120.4 244.163 121.196Z" fill="black"/>
<path opacity="0.25" d="M149.476 108.573C150.025 110.165 152.823 109.945 154.442 107.119C155.06 106.248 155.409 105.215 155.448 104.148C155.487 103.08 155.214 102.025 154.662 101.11C154.29 100.761 153.8 100.567 153.29 100.567C152.78 100.567 152.289 100.761 151.918 101.11C152.933 100.699 153.921 101.11 154.168 102.784C154.31 103.795 154.198 104.826 153.844 105.784C153.49 106.741 152.903 107.596 152.138 108.272C151.205 109.067 150.052 109.15 149.476 108.573Z" fill="black"/>
<path d="M180.482 88.1888C184.817 86.1859 187.15 81.9057 185.64 78.6132C184.131 75.3207 179.357 74.3055 175.022 76.3085C170.687 78.3114 168.327 82.5916 169.837 85.8567C171.346 89.1217 176.12 90.1918 180.482 88.1888Z" fill="#64CF83"/>
<path opacity="0.1" d="M180.482 88.1888C184.817 86.1859 187.15 81.9057 185.64 78.6132C184.131 75.3207 179.357 74.3055 175.022 76.3085C170.687 78.3114 168.327 82.5916 169.837 85.8567C171.346 89.1217 176.12 90.1918 180.482 88.1888Z" fill="black"/>
<path opacity="0.25" d="M171.537 82.7015C170.713 84.8142 173.896 87.0367 178.039 85.4453C181.304 84.1832 183.691 81.3845 183.527 79.3267C183.418 78.6114 183.032 77.9679 182.451 77.5362C181.87 77.1046 181.143 76.9197 180.426 77.022C181.826 77.461 182.429 78.9152 181.359 80.726C180.623 81.87 179.624 82.8209 178.445 83.4988C177.266 84.1767 175.941 84.5619 174.582 84.6222C172.771 84.6222 171.646 83.799 171.537 82.7015Z" fill="black"/>
<path d="M206.546 81.8237C207.356 81.8869 208.167 81.7227 208.889 81.3496C209.611 80.9765 210.214 80.4093 210.63 79.7119C211.047 79.0145 211.261 78.2146 211.247 77.4024C211.234 76.5901 210.994 75.7977 210.554 75.1144C210.115 74.4312 209.493 73.8842 208.76 73.5351C208.026 73.186 207.21 73.0487 206.402 73.1386C205.595 73.2286 204.829 73.5422 204.19 74.0441C203.551 74.546 203.065 75.2163 202.787 75.9795C202.546 77.2497 202.802 78.5639 203.501 79.6512C204.2 80.7385 205.29 81.5161 206.546 81.8237V81.8237Z" fill="#64CF83"/>
<path opacity="0.1" d="M206.546 81.8237C207.356 81.8869 208.167 81.7227 208.889 81.3496C209.611 80.9765 210.214 80.4093 210.63 79.7119C211.047 79.0145 211.261 78.2146 211.247 77.4024C211.234 76.5901 210.994 75.7977 210.554 75.1144C210.115 74.4312 209.493 73.8842 208.76 73.5351C208.026 73.186 207.21 73.0487 206.402 73.1386C205.595 73.2286 204.829 73.5422 204.19 74.0441C203.551 74.546 203.065 75.2163 202.787 75.9795C202.546 77.2497 202.802 78.5639 203.501 79.6512C204.2 80.7385 205.29 81.5161 206.546 81.8237V81.8237Z" fill="black"/>
<path opacity="0.25" d="M204.983 75.2925C203.638 75.8961 204.077 78.338 206.684 79.4904C207.498 79.9403 208.424 80.1483 209.352 80.09C210.28 80.0317 211.173 79.7094 211.924 79.1612C212.066 78.9758 212.169 78.7635 212.227 78.5372C212.285 78.3108 212.296 78.0752 212.26 77.8444C212.224 77.6136 212.142 77.3925 212.018 77.1944C211.894 76.9963 211.732 76.8253 211.54 76.6918C211.979 77.5424 211.54 78.4752 210.278 78.8045C209.429 78.9872 208.548 78.9656 207.708 78.7414C206.869 78.5172 206.094 78.0969 205.449 77.5149C204.681 76.7741 204.544 75.8412 204.983 75.2925Z" fill="black"/>
<path d="M222.735 157.057C222.247 157.704 221.949 158.475 221.875 159.283C221.801 160.09 221.953 160.903 222.315 161.628C222.677 162.354 223.234 162.964 223.924 163.391C224.613 163.818 225.408 164.044 226.219 164.044C227.03 164.044 227.825 163.818 228.515 163.391C229.204 162.964 229.761 162.354 230.123 161.628C230.485 160.903 230.638 160.09 230.563 159.283C230.489 158.475 230.192 157.704 229.704 157.057C228.768 156.155 227.519 155.651 226.219 155.651C224.92 155.651 223.67 156.155 222.735 157.057V157.057Z" fill="#64CF83"/>
<path opacity="0.1" d="M222.735 157.057C222.247 157.704 221.949 158.475 221.875 159.283C221.801 160.09 221.953 160.903 222.315 161.628C222.677 162.354 223.234 162.964 223.924 163.391C224.613 163.818 225.408 164.044 226.219 164.044C227.03 164.044 227.825 163.818 228.515 163.391C229.204 162.964 229.761 162.354 230.123 161.628C230.485 160.903 230.638 160.09 230.563 159.283C230.489 158.475 230.192 157.704 229.704 157.057C228.768 156.155 227.519 155.651 226.219 155.651C224.92 155.651 223.67 156.155 222.735 157.057V157.057Z" fill="black"/>
<path opacity="0.25" d="M229.045 159.306C229.264 157.879 227.015 156.919 224.6 158.456C222.707 159.663 221.609 161.748 222.021 163.01C222.182 163.446 222.509 163.801 222.93 163.996C223.352 164.192 223.834 164.212 224.271 164.053C223.338 164.053 222.762 163.12 223.201 161.83C223.516 161.021 224.018 160.298 224.667 159.721C225.316 159.144 226.092 158.729 226.932 158.51C228.03 158.291 228.825 158.648 229.045 159.306Z" fill="black"/>
<path opacity="0.25" d="M175.515 141.308C176.777 142.022 178.478 140.211 177.847 137.44C177.353 135.245 175.79 133.489 174.473 133.434C174.241 133.43 174.011 133.473 173.796 133.56C173.581 133.647 173.386 133.776 173.223 133.94C173.059 134.104 172.93 134.299 172.843 134.514C172.756 134.728 172.713 134.958 172.717 135.19C173.128 134.339 174.088 134.092 175.158 134.943C175.813 135.518 176.322 136.242 176.641 137.053C176.961 137.864 177.083 138.74 176.997 139.607C176.832 140.705 176.229 141.336 175.515 141.308Z" fill="black"/>
<path d="M215.792 127.808C215.274 129.001 215.24 130.348 215.695 131.566C216.15 132.784 217.061 133.778 218.234 134.338C220.457 134.997 222.953 133.131 223.722 130.168C224.086 129.597 224.313 128.95 224.384 128.276C224.454 127.603 224.368 126.923 224.13 126.289C223.893 125.655 223.511 125.085 223.015 124.624C222.519 124.163 221.923 123.824 221.274 123.633C220.624 123.443 219.939 123.406 219.273 123.526C218.607 123.645 217.977 123.919 217.435 124.324C216.893 124.729 216.452 125.254 216.148 125.859C215.843 126.464 215.684 127.131 215.682 127.808H215.792Z" fill="#64CF83"/>
<path opacity="0.1" d="M215.792 127.808C215.274 129.001 215.24 130.348 215.695 131.566C216.15 132.784 217.061 133.778 218.234 134.338C220.457 134.997 222.953 133.131 223.722 130.168C224.086 129.597 224.313 128.95 224.384 128.276C224.454 127.603 224.368 126.923 224.13 126.289C223.893 125.655 223.511 125.085 223.015 124.624C222.519 124.163 221.923 123.824 221.274 123.633C220.624 123.443 219.939 123.406 219.273 123.526C218.607 123.645 217.977 123.919 217.435 124.324C216.893 124.729 216.452 125.254 216.148 125.859C215.843 126.464 215.684 127.131 215.682 127.808H215.792Z" fill="black"/>
<path opacity="0.25" d="M222.212 125.804C221.498 124.514 219.111 125.118 218.124 127.78C217.722 128.622 217.573 129.562 217.695 130.488C217.817 131.413 218.204 132.283 218.81 132.993C219.003 133.118 219.22 133.204 219.447 133.244C219.674 133.284 219.907 133.279 220.132 133.228C220.358 133.176 220.57 133.081 220.758 132.946C220.945 132.812 221.104 132.641 221.224 132.444C220.428 132.938 219.468 132.636 219.056 131.319C218.82 130.487 218.784 129.611 218.951 128.762C219.118 127.913 219.483 127.116 220.017 126.435C220.758 125.585 221.636 125.392 222.212 125.804Z" fill="black"/>
<path d="M1.46224 317.292C3.74857 318.45 5.75533 320.091 7.34293 322.103C6.16679 321.456 5.14355 321.127 2.63838 323.891C0.568375 326.149 0.368423 326.243 -0.972375 327.878C-1.18408 328.113 -1.37225 328.348 -1.54867 328.56L-3.07764 327.313L-2.52485 326.619C-1.19581 324.961 -1.10175 324.784 0.685984 322.303C2.86184 319.268 2.33258 318.28 1.46224 317.292Z" fill="#F0F0F0"/>
<path d="M-6.35824 326.56C-6.50155 326.74 -6.60571 326.948 -6.66405 327.171V327.324C-6.66405 327.324 -6.66405 327.324 -6.66405 327.383C-6.67579 327.465 -6.67579 327.548 -6.66405 327.63C-6.66923 327.669 -6.66923 327.709 -6.66405 327.748C-6.66907 327.81 -6.66907 327.873 -6.66405 327.936V327.936C-6.2453 329.053 -5.53639 330.039 -4.61029 330.791C-3.68419 331.544 -2.57435 332.036 -1.39493 332.217H-1.07739H-0.842145H-0.783353L-0.653959 332.158C-0.444049 332.059 -0.259121 331.915 -0.112945 331.735C0.0300885 331.558 0.134306 331.354 0.192862 331.135C0.486897 330.253 -0.336413 328.712 -1.84187 327.489C-3.34733 326.266 -5.01746 325.772 -5.829 326.254C-6.02407 326.319 -6.20401 326.423 -6.35824 326.56V326.56Z" fill="#F0F0F0"/>
<path d="M13.448 325.113C15.608 325.255 17.7185 325.822 19.658 326.783C18.5524 326.666 17.3057 327.783 16.4119 330.5C16.0638 331.308 15.7653 332.137 15.518 332.982C15.4592 333.229 15.3886 333.44 15.3416 333.652L13.7185 333.217L13.8949 332.546C14.1229 331.694 14.2803 330.825 14.3654 329.947C14.9887 327.136 14.5065 325.56 13.448 325.113Z" fill="#F0F0F0"/>
<path d="M14.0361 332.194C14.3183 332.227 14.5975 332.282 14.8712 332.359C15.1407 332.427 15.4043 332.518 15.6592 332.629L15.3887 333.652L13.7656 333.217C13.8597 332.9 13.9538 332.558 14.0361 332.194Z" fill="#E0E0E0"/>
<path d="M12.5543 334.299C12.6719 333.864 13.5187 333.711 14.4361 333.958C15.3535 334.205 16.0004 334.758 15.8828 335.193C15.7652 335.628 15.4594 335.628 14.9889 335.652C15.4946 335.487 15.5534 335.005 15.0595 334.64C14.5014 334.299 13.8547 334.131 13.2012 334.158C12.8131 334.158 12.5543 334.346 12.6131 334.664C12.5493 334.554 12.5284 334.424 12.5543 334.299V334.299Z" fill="#E0E0E0"/>
<path d="M26.5266 327.336C28.904 326.342 31.4866 325.938 34.0539 326.16C32.8778 326.607 32.1015 328.747 32.5249 332.875C32.866 336.239 33.3012 339.462 33.7011 341.79C33.7011 342.132 33.7952 342.461 33.854 342.767L31.8898 343.072C31.8898 342.767 31.7957 342.437 31.7369 342.096C31.3605 339.744 30.7842 336.568 30.0903 333.263C29.1847 329.182 27.8439 327.371 26.5266 327.336Z" fill="#F0F0F0"/>
<path d="M31.6428 341.826C31.9617 341.725 32.2881 341.651 32.619 341.602C32.9493 341.547 33.2838 341.519 33.6187 341.52C33.6775 341.955 33.7363 342.367 33.8069 342.755L31.8428 343.061C31.784 342.673 31.7134 342.261 31.6428 341.826Z" fill="#E0E0E0"/>
<path d="M28.8903 345.143C28.9338 345.383 29.0259 345.611 29.1607 345.813C29.1852 345.861 29.217 345.905 29.2549 345.943V346.002L29.443 346.178L29.5371 346.249L29.7135 346.354C30.8714 346.915 32.1811 347.08 33.4419 346.825C34.6936 346.689 35.8706 346.162 36.8056 345.319V345.319L36.935 345.167L37.0056 345.072C37.0515 345.002 37.0909 344.927 37.1232 344.849C37.1283 344.826 37.1283 344.802 37.1232 344.778C37.1299 344.728 37.1299 344.676 37.1232 344.626C37.1825 344.39 37.1825 344.144 37.1232 343.908C37.0856 343.674 37.0017 343.45 36.8762 343.249C36.394 342.391 34.6063 341.956 32.5951 342.273C30.5839 342.591 29.0667 343.543 28.8197 344.508C28.8044 344.722 28.8283 344.937 28.8903 345.143V345.143Z" fill="#F0F0F0"/>
<path d="M30.6431 345.471C30.5373 344.801 31.584 344.095 32.9954 343.872C34.4068 343.648 35.5947 344.013 35.7005 344.683C35.7711 345.083 35.3947 345.519 34.7596 345.86C35.3594 345.33 35.136 344.683 34.2539 344.448C33.2911 344.332 32.3152 344.495 31.4429 344.919C30.9607 345.224 30.7019 345.554 30.9607 345.942C30.8785 345.889 30.808 345.82 30.7534 345.739C30.6988 345.659 30.6613 345.567 30.6431 345.471Z" fill="#E0E0E0"/>
<path d="M40.1111 323.902C41.9541 322.325 43.9989 321 46.1917 319.962C45.2273 320.739 45.0156 322.15 45.9682 324.079C46.7798 325.643 47.6383 327.113 48.3205 328.137L48.591 328.583L47.015 329.607L46.7327 329.172C46.0506 328.148 45.0744 326.76 43.9806 325.373C42.6045 323.679 41.2167 323.303 40.1111 323.902Z" fill="#F0F0F0"/>
<path d="M46.5452 328.924C46.7804 328.735 47.0391 328.547 47.3096 328.371C47.5802 328.194 47.8742 328.03 48.1329 327.889C48.2858 328.136 48.4387 328.359 48.5681 328.583L46.9921 329.606C46.8509 329.394 46.7098 329.182 46.5452 328.924Z" fill="#E0E0E0"/>
<path d="M45.839 331.841C45.9321 331.988 46.0566 332.112 46.2036 332.205L46.3094 332.264L46.4859 332.323H46.5682H46.7211C47.6235 332.329 48.5046 332.049 49.238 331.523C50.0158 331.068 50.6324 330.381 51.0022 329.559V329.559V329.418C51.0022 329.418 51.0022 329.359 51.0022 329.324C51.0022 329.288 51.0022 329.206 51.0022 329.147C50.9964 329.108 50.9964 329.069 51.0022 329.03C50.9726 328.858 50.9086 328.694 50.814 328.548C50.7211 328.408 50.6012 328.288 50.4612 328.195C49.8967 327.771 48.6029 328.006 47.3797 328.806C46.1565 329.606 45.4156 330.676 45.5685 331.359C45.619 331.538 45.7118 331.704 45.839 331.841V331.841Z" fill="#F0F0F0"/>
<path d="M47.0737 331.535C46.8149 331.135 47.2854 330.359 48.1322 329.818C48.979 329.277 49.8729 329.159 50.1316 329.559C50.3904 329.959 50.1316 330.194 49.8611 330.582C50.0963 330.065 49.7435 329.688 49.1084 329.818C48.4484 330.02 47.8605 330.408 47.4147 330.935C47.1913 331.276 47.109 331.57 47.4147 331.746C47.3467 331.736 47.2814 331.711 47.2228 331.675C47.1643 331.639 47.1135 331.591 47.0737 331.535V331.535Z" fill="#E0E0E0"/>
<path d="M50.8257 315.411C51.6806 312.982 53.1089 310.795 54.9892 309.036C54.4835 310.212 55.5891 312.212 58.9175 314.635C61.6226 316.622 64.3042 318.457 66.2566 319.739L67.0682 320.28L65.9861 321.938L65.1628 321.409C63.1987 320.139 60.4582 318.434 57.5414 316.705C53.9777 314.682 51.7313 314.458 50.8257 315.411Z" fill="#F0F0F0"/>
<path d="M64.9399 321.256C65.0805 320.955 65.2416 320.664 65.4222 320.386C65.6041 320.107 65.8086 319.843 66.0337 319.598L67.0687 320.28L65.9867 321.938L64.9399 321.256Z" fill="#E0E0E0"/>
<path d="M65.5274 325.972C65.7512 326.118 66.0039 326.215 66.2683 326.254H66.5153H66.7976H66.927L67.1387 326.195C68.4049 325.639 69.4628 324.696 70.1614 323.502C70.9514 322.377 71.3632 321.03 71.3375 319.656V319.656V319.444C71.3441 319.402 71.3441 319.358 71.3375 319.315C71.3133 319.223 71.2818 319.132 71.2434 319.045V318.986C71.2434 318.927 71.1846 318.88 71.1611 318.833C71.0208 318.61 70.8352 318.42 70.6163 318.274C70.3974 318.128 70.1502 318.03 69.8908 317.986C68.8323 317.763 67.174 318.892 65.9625 320.762C64.7511 322.632 64.3748 324.596 65.0099 325.466C65.1468 325.668 65.3228 325.84 65.5274 325.972V325.972Z" fill="#F0F0F0"/>
<path d="M67.0685 324.796C66.457 324.396 66.6452 323.02 67.492 321.726C68.3388 320.433 69.5032 319.727 70.1147 320.127C70.5029 320.374 70.5734 320.985 70.3735 321.726C70.3735 320.868 69.656 320.55 68.8563 321.115C68.0495 321.802 67.4677 322.716 67.1862 323.738C67.0686 324.361 67.1862 324.82 67.6566 324.914C67.5557 324.935 67.4516 324.935 67.3506 324.915C67.2495 324.895 67.1536 324.854 67.0685 324.796V324.796Z" fill="#E0E0E0"/>
<path d="M57.1766 303.307C57.1711 300.626 57.596 297.961 58.435 295.415C58.435 296.779 59.6112 298.073 62.4222 298.767C64.7156 299.32 66.962 299.755 68.5733 300.025L69.2555 300.143L68.9262 302.19L68.244 302.095C66.621 301.849 64.3628 301.554 61.9987 301.366C59.1172 301.166 57.5529 302.013 57.1766 303.307Z" fill="#F0F0F0"/>
<path d="M67.9856 302.131C67.9987 301.785 68.0341 301.439 68.0914 301.096C68.1503 300.732 68.2326 300.391 68.3149 300.073L69.2558 300.226L68.9265 302.273L67.9856 302.131Z" fill="#E0E0E0"/>
<path d="M70.044 304.824C70.2339 304.866 70.4304 304.866 70.6203 304.824H70.7379L70.9261 304.719L70.9967 304.66L71.1261 304.566C71.7682 303.792 72.1909 302.86 72.3502 301.867C72.5095 300.874 72.3995 299.856 72.0317 298.92V298.92L71.9494 298.791V298.709L71.8082 298.556L71.7024 298.485C71.546 298.372 71.3642 298.299 71.1731 298.273C70.9872 298.232 70.7945 298.232 70.6086 298.273C69.8323 298.426 69.0561 299.685 68.7973 301.296C68.5386 302.907 68.8796 304.342 69.5736 304.73C69.7223 304.794 69.8824 304.826 70.044 304.824Z" fill="#F0F0F0"/>
<path d="M70.7142 303.578C70.185 303.496 69.9027 302.52 70.0791 301.403C70.2555 300.285 70.8318 299.462 71.3611 299.544C71.6904 299.544 71.9256 299.991 72.0197 300.544C71.761 299.956 71.1847 299.968 70.8436 300.544C70.5151 301.244 70.4006 302.025 70.5143 302.79C70.6201 303.249 70.8083 303.52 71.1729 303.426C71.1121 303.483 71.0396 303.526 70.9604 303.552C70.8812 303.579 70.7972 303.588 70.7142 303.578V303.578Z" fill="#E0E0E0"/>
<path d="M58.0115 288.465C57.4029 286.61 56.9041 284.721 56.5178 282.808C56.7648 283.584 57.3999 284.513 58.2115 284.501C58.8213 284.5 59.4291 284.429 60.0227 284.29H60.2109L60.5285 285.466H60.3403C59.7603 285.638 59.2093 285.895 58.7055 286.23C58.3779 286.489 58.1363 286.841 58.0124 287.24C57.8886 287.639 57.8883 288.066 58.0115 288.465V288.465Z" fill="#F0F0F0"/>
<path d="M60.0945 285.56C60.0177 285.369 59.9548 285.172 59.9063 284.972C59.8475 284.76 59.8004 284.56 59.7651 284.36L60.2121 284.243L60.5296 285.419L60.0945 285.56Z" fill="#E0E0E0"/>
<path d="M62.3636 287.019C62.5084 286.978 62.6442 286.91 62.7635 286.819L62.834 286.748L62.9399 286.619V286.548L62.9987 286.442C63.2027 285.691 63.2012 284.898 62.9943 284.147C62.7874 283.396 62.3828 282.714 61.8226 282.173V282.173L61.7167 282.114H61.6462H61.505H61.4109C61.2633 282.086 61.1116 282.086 60.964 282.114C60.8171 282.149 60.6804 282.218 60.5641 282.314C60.0701 282.667 59.9172 283.796 60.2465 285.008C60.5759 286.219 61.258 287.136 61.8696 287.195C62.046 287.177 62.2155 287.116 62.3636 287.019V287.019Z" fill="#F0F0F0"/>
<path d="M62.4463 285.925C62.0464 286.031 61.5407 285.431 61.2702 284.584C60.9997 283.737 61.1879 282.973 61.5877 282.867C61.9876 282.761 62.1288 283.008 62.364 283.373C61.9994 283.043 61.5878 283.232 61.5289 283.784C61.5131 284.383 61.6769 284.973 61.9994 285.478C62.2229 285.76 62.4463 285.901 62.658 285.713C62.6165 285.808 62.541 285.883 62.4463 285.925Z" fill="#E0E0E0"/>
<path d="M53.0832 275.833C51.0512 274.241 49.3797 272.237 48.1787 269.952C49.1784 270.811 50.1546 271.34 53.0832 269.164C55.4355 267.4 55.6825 267.353 57.2703 266.036L57.9406 265.483L59.2109 267L58.5523 267.565C56.9762 268.894 56.8586 269.047 54.6945 271.093C52.0482 273.634 52.4128 274.704 53.0832 275.833Z" fill="#F0F0F0"/>
<path d="M58.2588 267.835C58.0101 267.613 57.7781 267.373 57.5649 267.117C57.3508 266.86 57.1544 266.589 56.9768 266.306L57.9412 265.518L59.2115 267.035L58.2588 267.835Z" fill="#E0E0E0"/>
<path d="M61.6696 266.847C61.1874 267.259 60.0936 266.753 59.235 265.73C58.3764 264.706 58.0589 263.542 58.5529 263.13C59.0469 262.719 59.3997 262.977 59.9642 263.33C59.235 263.107 58.7881 263.624 59.0704 264.436C59.4406 265.279 60.0499 265.994 60.8228 266.494C61.3168 266.741 61.7167 266.788 61.8931 266.388C61.8882 266.476 61.866 266.561 61.8276 266.64C61.7892 266.719 61.7355 266.789 61.6696 266.847Z" fill="#E0E0E0"/>
<path d="M42.5922 265.941C40.5038 265.386 38.5427 264.432 36.8174 263.13C37.8641 263.46 39.2638 262.613 40.6634 260.155C41.1569 259.441 41.6009 258.695 41.9924 257.92L42.2982 257.32L43.7919 258.05L43.4978 258.661C43.1298 259.445 42.8193 260.255 42.5687 261.084C41.4984 263.695 41.6748 265.318 42.5922 265.941Z" fill="#F0F0F0"/>
<path d="M43.3338 259.002C43.068 258.915 42.8086 258.808 42.5576 258.685C42.3038 258.563 42.06 258.421 41.8284 258.261L42.2988 257.32L43.7925 258.05L43.3338 259.002Z" fill="#E0E0E0"/>
<path d="M46.0384 258.074C46.1065 257.921 46.1464 257.758 46.1561 257.592C46.1618 257.556 46.1618 257.521 46.1561 257.486V257.486C46.166 257.431 46.166 257.375 46.1561 257.321C46.1599 257.294 46.1599 257.266 46.1561 257.239V257.121C45.7246 256.387 45.0693 255.809 44.286 255.474C43.5345 255.069 42.6761 254.904 41.8279 255.004H41.6985H41.6162L41.4633 255.075L41.3809 255.133C41.2575 255.244 41.1541 255.376 41.0751 255.522C41.0073 255.666 40.9674 255.821 40.9575 255.98C40.8987 256.639 41.722 257.568 42.957 258.18C44.1919 258.791 45.4386 258.862 45.9208 258.403C45.9762 258.3 46.0159 258.189 46.0384 258.074V258.074Z" fill="#F0F0F0"/>
<path d="M45.2036 257.215C45.0036 257.627 44.1568 257.615 43.2982 257.215C42.4396 256.815 41.9104 256.121 42.1221 255.71C42.3338 255.298 42.6161 255.369 43.0865 255.439C42.5573 255.498 42.4161 255.969 42.8278 256.415C43.3114 256.86 43.9183 257.147 44.5684 257.239C44.9566 257.239 45.2271 257.239 45.2271 256.862C45.2481 256.92 45.2568 256.981 45.2528 257.041C45.2487 257.102 45.232 257.161 45.2036 257.215V257.215Z" fill="#E0E0E0"/>
<path d="M30.1609 261.284C27.6351 261.801 25.0224 261.708 22.5396 261.013C23.8451 260.825 24.8918 258.861 25.3152 254.768C25.6093 251.428 25.7974 248.205 25.8915 245.877C25.8915 245.524 25.8915 245.206 25.8915 244.9L27.8792 244.971C27.8792 245.265 27.8792 245.594 27.8792 245.947C27.8086 248.299 27.7733 251.51 27.8792 254.862C27.9027 258.967 28.8672 260.966 30.1609 261.284Z" fill="#F0F0F0"/>
<path d="M27.8671 246.218C27.5382 246.242 27.208 246.242 26.8791 246.218C26.5437 246.208 26.2095 246.172 25.8794 246.112C25.8794 245.665 25.8794 245.253 25.8794 244.865L27.8671 244.936C27.9024 245.347 27.8788 245.771 27.8671 246.218Z" fill="#E0E0E0"/>
<path d="M31.2074 243.478C31.2096 243.231 31.1616 242.987 31.0662 242.76C31.0517 242.711 31.032 242.664 31.0074 242.619V242.56L30.8663 242.348L30.7722 242.266L30.631 242.125C29.6021 241.391 28.3663 241.004 27.1026 241.019C25.8439 240.918 24.5851 241.214 23.5036 241.866V241.866L23.3508 241.984C23.3165 242.012 23.285 242.044 23.2566 242.078L23.092 242.266V242.337L23.0214 242.466C22.9095 242.685 22.8454 242.926 22.8333 243.172C22.8341 243.409 22.8779 243.644 22.9626 243.866C23.2684 244.795 24.9385 245.559 26.9732 245.63C29.008 245.7 30.7369 245.054 31.1132 244.148C31.1849 243.932 31.2168 243.705 31.2074 243.478V243.478Z" fill="#F0F0F0"/>
<path d="M29.5489 242.83C29.5489 243.501 28.3728 244.006 26.9496 243.948C25.5265 243.889 24.4327 243.313 24.4562 242.654C24.4562 242.23 24.9149 241.878 25.6323 241.689C24.9384 242.101 25.0443 242.807 25.8676 243.171C26.7887 243.474 27.7788 243.499 28.7138 243.242C29.2431 243.03 29.5606 242.76 29.3842 242.325C29.4988 242.467 29.5574 242.647 29.5489 242.83V242.83Z" fill="#E0E0E0"/>
<path d="M16.1418 262.143C14.0268 263.337 11.7653 264.251 9.4143 264.86C10.5199 264.284 11.0374 262.955 10.4375 260.897C9.94356 259.227 9.37902 257.639 8.93208 256.51C8.87328 256.345 8.8027 256.18 8.7439 256.039L10.4963 255.333C10.5551 255.475 10.6139 255.639 10.6845 255.804C11.155 256.98 11.8607 258.45 12.6487 260.003C13.6484 261.885 14.9539 262.484 16.1418 262.143Z" fill="#F0F0F0"/>
<path d="M10.8021 256.074C10.5316 256.203 10.2493 256.345 9.94354 256.462C9.65194 256.585 9.35351 256.691 9.0497 256.78L8.7439 256.027L10.4963 255.321C10.5904 255.557 10.6845 255.804 10.8021 256.074Z" fill="#E0E0E0"/>
<path d="M12.048 253.334C11.9778 253.175 11.878 253.032 11.754 252.911C11.7236 252.886 11.696 252.859 11.6716 252.828L11.507 252.734H11.4246H11.2953C10.4107 252.556 9.49224 252.663 8.67248 253.04C7.82255 253.343 7.08719 253.902 6.56718 254.639V254.639C6.54297 254.676 6.52324 254.716 6.50839 254.757V254.839C6.50306 254.898 6.50306 254.957 6.50839 255.016C6.50839 255.016 6.50839 255.098 6.50839 255.133C6.50526 255.307 6.53725 255.479 6.60246 255.639C6.66453 255.799 6.7609 255.944 6.88476 256.063C7.35522 256.58 8.67246 256.592 10.0133 256.063C11.3541 255.533 12.3068 254.592 12.2832 253.887C12.2605 253.683 12.1787 253.491 12.048 253.334V253.334Z" fill="#F0F0F0"/>
<path d="M10.7781 253.392C10.9545 253.839 10.3429 254.498 9.41374 254.874C8.48459 255.25 7.57894 255.203 7.40252 254.756C7.28491 254.486 7.48487 254.121 7.86123 253.792C7.53191 254.262 7.80243 254.698 8.4493 254.698C9.14173 254.631 9.79777 254.356 10.3311 253.91C10.6252 253.616 10.7428 253.345 10.5075 253.122C10.6297 253.173 10.7268 253.27 10.7781 253.392V253.392Z" fill="#E0E0E0"/>
<path d="M3.94496 268.671C2.77394 270.997 0.924177 272.912 -1.35944 274.163C-0.665518 272.987 -1.77109 270.506 -5.37008 266.73C-6.22866 265.825 -7.9811 263.602 -10.0746 261.543L-10.9685 260.673L-9.59241 259.25L-8.68679 260.109C-6.55798 262.155 -4.25274 264.343 -3.60587 264.919C0.275389 268.389 2.86291 269.4 3.94496 268.671Z" fill="#F0F0F0"/>
<path d="M10.1664 264.296C16.0709 261.301 22.731 260.124 29.3043 260.914C35.8776 261.704 42.0689 264.426 47.0952 268.736C52.1215 273.045 55.7571 278.748 57.542 285.123C59.327 291.499 59.1812 298.26 57.1232 304.553C55.0651 310.846 51.1872 316.387 45.9799 320.475C40.7725 324.564 34.4696 327.016 27.8684 327.523C21.2671 328.029 14.664 326.566 8.89406 323.32C3.12412 320.073 -1.55344 315.188 -4.54704 309.283C-8.56053 301.366 -9.26515 292.179 -6.50594 283.742C-3.74672 275.306 2.25036 268.311 10.1664 264.296V264.296Z" fill="#F0F0F0"/>
<path d="M10.1664 264.296C16.0709 261.301 22.731 260.124 29.3043 260.914C35.8776 261.704 42.0689 264.426 47.0952 268.736C52.1215 273.045 55.7571 278.748 57.542 285.123C59.327 291.499 59.1812 298.26 57.1232 304.553C55.0651 310.846 51.1872 316.387 45.9799 320.475C40.7725 324.564 34.4696 327.016 27.8684 327.523C21.2671 328.029 14.664 326.566 8.89406 323.32C3.12412 320.073 -1.55344 315.188 -4.54704 309.283C-8.56053 301.366 -9.26515 292.179 -6.50594 283.742C-3.74672 275.306 2.25036 268.311 10.1664 264.296V264.296Z" fill="#F5F5F5"/>
<path d="M21.1165 260.967C30.996 260.002 54.0483 270.317 54.754 294.651C55.4597 318.986 30.5491 327.583 22.0338 327.489C26.7218 327.95 31.4541 327.415 35.9214 325.921C40.3888 324.427 44.4905 322.007 47.9584 318.82C51.4263 315.632 54.1823 311.748 56.0463 307.422C57.9102 303.096 58.8401 298.425 58.7751 293.715C58.7102 289.005 57.6519 284.362 55.6693 280.089C53.6868 275.816 50.8247 272.009 47.2702 268.918C43.7157 265.827 39.5488 263.521 35.042 262.151C30.5352 260.781 25.7899 260.377 21.1165 260.967Z" fill="#E0E0E0"/>
<path d="M42.9928 303.613C43.7926 301.261 45.8979 299.779 47.6973 300.379C49.4968 300.979 50.3084 303.414 49.4968 305.801C48.6853 308.189 46.5918 309.647 44.7923 309.035C42.9928 308.424 42.1813 306.001 42.9928 303.613Z" fill="#E0E0E0"/>
<path opacity="0.1" d="M46.3795 308.012C45.3092 308.541 44.0272 307.024 44.5683 304.766C45.0505 302.978 46.3913 301.579 47.4733 301.59C47.6628 301.595 47.8495 301.637 48.0222 301.715C48.1948 301.794 48.3501 301.906 48.4785 302.045C48.6069 302.184 48.7059 302.348 48.7697 302.527C48.8334 302.705 48.8605 302.895 48.8494 303.084C48.5436 302.367 47.7556 302.131 46.8617 302.802C46.3026 303.249 45.8599 303.825 45.5712 304.48C45.2824 305.136 45.1563 305.851 45.2034 306.565C45.2857 307.436 45.7797 308.012 46.3795 308.012Z" fill="black"/>
<path d="M11.0957 278.926C9.64901 280.996 7.21441 281.796 5.6619 280.714C4.1094 279.632 4.00356 277.068 5.45021 274.998C6.89686 272.928 9.3197 272.14 10.884 273.222C12.4482 274.304 12.5658 276.856 11.0957 278.926Z" fill="#E0E0E0"/>
<path opacity="0.1" d="M9.11981 273.799C10.2959 273.575 11.1427 275.422 9.94308 277.421C8.97865 278.997 7.30856 279.962 6.2618 279.644C5.90199 279.523 5.60466 279.265 5.43493 278.925C5.2652 278.586 5.23687 278.193 5.35615 277.833C5.462 278.597 6.15593 279.009 7.20269 278.656C7.86243 278.381 8.44621 277.95 8.90473 277.402C9.36326 276.853 9.68308 276.202 9.83723 275.504C9.99013 274.622 9.67259 273.963 9.11981 273.799Z" fill="black"/>
<path d="M21.6814 304.049C23.7631 304.473 25.2098 306.084 24.857 307.648C24.5041 309.212 22.5988 310.13 20.517 309.706C18.4352 309.283 16.9886 307.66 17.3532 306.107C17.7178 304.555 19.5996 303.626 21.6814 304.049Z" fill="#E0E0E0"/>
<path opacity="0.1" d="M18.376 307.295C17.8232 306.46 18.9523 305.19 20.8929 305.472C22.4337 305.684 23.7392 306.648 23.8333 307.566C23.8511 307.725 23.8363 307.886 23.7896 308.039C23.743 308.193 23.6655 308.335 23.562 308.457C23.4585 308.579 23.3311 308.679 23.1876 308.75C23.0442 308.822 22.8877 308.863 22.7277 308.871C23.2923 308.53 23.4099 307.848 22.7277 307.178C22.2983 306.757 21.7734 306.446 21.1979 306.272C20.6225 306.098 20.0134 306.066 19.4227 306.178C18.7171 306.354 18.3172 306.837 18.376 307.295Z" fill="black"/>
<path d="M33.1838 288.935C31.7371 286.877 31.8194 284.313 33.3719 283.219C34.9244 282.126 37.359 282.925 38.8057 284.984C40.2523 287.042 40.17 289.606 38.6175 290.7C37.065 291.793 34.6186 290.994 33.1838 288.935Z" fill="#E0E0E0"/>
<path opacity="0.1" d="M38.6997 288.817C38.488 289.994 36.4768 290.158 35.0066 288.335C33.8305 286.9 33.5247 284.995 34.1716 284.125C34.2884 283.975 34.434 283.851 34.5996 283.759C34.7652 283.666 34.9476 283.608 35.1361 283.587C35.3245 283.566 35.5152 283.583 35.697 283.637C35.8788 283.691 36.0479 283.781 36.1946 283.901C35.4301 283.725 34.7832 284.23 34.7949 285.336C34.8287 286.045 35.0322 286.736 35.3884 287.35C35.7445 287.964 36.2428 288.483 36.8414 288.864C37.6177 289.347 38.3469 289.276 38.6997 288.817Z" fill="black"/>
<path d="M21.6102 315.069C24.0448 315.704 25.6326 317.715 25.1387 319.55C24.6447 321.385 22.2924 322.349 19.846 321.714C17.3997 321.079 15.8236 319.056 16.3176 317.221C16.8116 315.387 19.1756 314.434 21.6102 315.069Z" fill="#E0E0E0"/>
<path opacity="0.1" d="M17.4814 318.727C16.8698 317.692 18.3047 316.257 20.5982 316.704C22.4094 317.069 23.8914 318.315 23.9619 319.397C23.9682 319.586 23.9368 319.774 23.8696 319.951C23.8024 320.128 23.7006 320.289 23.5703 320.426C23.44 320.563 23.2838 320.672 23.1107 320.748C22.9377 320.824 22.7513 320.865 22.5623 320.868C23.2445 320.503 23.4327 319.691 22.7035 318.856C22.2202 318.33 21.6173 317.928 20.9458 317.685C20.2742 317.441 19.5539 317.363 18.8457 317.457C17.9519 317.621 17.4461 318.151 17.4814 318.727Z" fill="black"/>
<path d="M20.681 284.677C18.4581 284.901 16.5175 283.736 16.3528 282.066C16.1882 280.396 17.8465 278.855 20.0694 278.632C22.2923 278.408 24.2212 279.573 24.3858 281.243C24.5505 282.913 22.8569 284.489 20.681 284.677Z" fill="#E0E0E0"/>
<path opacity="0.1" d="M22.9632 280.373C23.7865 281.043 23.0455 282.666 21.0108 283.007C19.3995 283.278 17.7765 282.702 17.3883 281.831C17.3252 281.676 17.2934 281.51 17.2947 281.342C17.2961 281.175 17.3305 281.009 17.3961 280.855C17.4617 280.701 17.5571 280.561 17.6769 280.444C17.7967 280.327 17.9384 280.235 18.094 280.173C17.6353 280.69 17.7294 281.349 18.5997 281.878C19.1604 282.172 19.7839 282.325 20.4169 282.325C21.0498 282.325 21.6733 282.172 22.234 281.878C22.9162 281.431 23.1749 280.843 22.9632 280.373Z" fill="black"/>
<path d="M6.39155 292.804C6.72087 296.333 4.86257 299.308 2.23979 299.555C-0.383003 299.802 -2.7588 297.203 -3.08812 293.675C-3.41744 290.146 -1.54737 287.182 1.07542 286.935C3.69821 286.688 6.08576 289.323 6.39155 292.804Z" fill="#E0E0E0"/>
<path opacity="0.1" d="M-0.312628 289.194C0.745897 287.924 3.28636 289.1 3.80386 292.299C4.20374 294.828 3.2746 297.345 1.89852 297.956C1.65166 298.052 1.38818 298.098 1.12352 298.09C0.858857 298.083 0.598349 298.022 0.357313 297.913C0.116277 297.803 -0.100433 297.647 -0.280109 297.452C-0.459784 297.258 -0.598778 297.029 -0.688965 296.78C0.110809 297.51 1.2399 297.368 1.99263 296.016C2.45317 295.138 2.69376 294.161 2.69376 293.17C2.69376 292.178 2.45317 291.201 1.99263 290.323C1.35751 289.253 0.428339 288.841 -0.312628 289.194Z" fill="black"/>
<path d="M46.8266 288.864C46.2621 287.065 46.8972 285.265 48.2498 284.842C49.6023 284.419 51.1666 285.536 51.7782 287.335C52.3898 289.135 51.6958 290.934 50.3433 291.358C48.9907 291.781 47.3794 290.664 46.8266 288.864Z" fill="#E0E0E0"/>
<path opacity="0.1" d="M50.7786 290.029C50.367 290.829 48.8851 290.488 48.2617 288.853C48.0077 288.341 47.907 287.767 47.9717 287.199C48.0364 286.632 48.2637 286.095 48.6263 285.654C48.7427 285.573 48.8741 285.517 49.0127 285.489C49.1513 285.461 49.2941 285.461 49.4326 285.49C49.5711 285.518 49.7024 285.575 49.8185 285.655C49.9346 285.736 50.0332 285.84 50.1083 285.959C49.6143 285.665 49.0262 285.865 48.791 286.665C48.6503 287.18 48.6357 287.722 48.7482 288.244C48.8608 288.766 49.0974 289.253 49.4379 289.664C49.9083 290.17 50.4258 290.288 50.7786 290.029Z" fill="black"/>
<path d="M36.0063 276.773C33.8658 275.374 32.9837 272.916 34.0422 271.304C35.1007 269.693 37.7 269.528 39.8406 270.928C41.9811 272.328 42.8632 274.786 41.8047 276.397C40.7462 278.008 38.1469 278.185 36.0063 276.773Z" fill="#E0E0E0"/>
<path opacity="0.1" d="M41.1812 274.587C41.4282 275.763 39.5817 276.704 37.5117 275.528C35.8768 274.599 34.8536 272.917 35.1594 271.858C35.2145 271.674 35.3055 271.503 35.4271 271.354C35.5487 271.205 35.6986 271.082 35.868 270.991C36.0374 270.9 36.2231 270.844 36.4143 270.825C36.6056 270.807 36.7986 270.826 36.9824 270.882C36.2062 271.011 35.8063 271.729 36.2062 272.776C36.5015 273.439 36.9532 274.021 37.5226 274.472C38.0921 274.922 38.7623 275.228 39.4758 275.363C40.3579 275.504 41.0165 275.151 41.1812 274.587Z" fill="black"/>
<path d="M22.7162 271.34C21.1049 271.669 19.5994 270.952 19.3524 269.74C19.1054 268.529 20.1992 267.282 21.8223 266.953C23.4454 266.624 24.9391 267.329 25.1861 268.541C25.4331 269.752 24.3275 271.011 22.7162 271.34Z" fill="#E0E0E0"/>
<path opacity="0.1" d="M24.0338 268.023C24.6807 268.447 24.2573 269.694 22.7871 270.105C22.3212 270.281 21.8145 270.318 21.3281 270.211C20.8417 270.105 20.3966 269.859 20.0467 269.505C19.9874 269.397 19.9504 269.277 19.9379 269.154C19.9254 269.031 19.9375 268.907 19.9736 268.789C20.0098 268.67 20.0692 268.56 20.1484 268.465C20.2276 268.37 20.325 268.292 20.4348 268.235C20.1408 268.647 20.2702 269.164 20.9406 269.411C21.3757 269.577 21.8443 269.636 22.3069 269.583C22.7695 269.529 23.2125 269.366 23.5987 269.105C24.1162 268.788 24.269 268.341 24.0338 268.023Z" fill="black"/>
<path d="M8.17849 309.836C9.35463 311.012 9.56636 312.647 8.68426 313.529C7.80216 314.411 6.15556 314.164 5.00294 312.999C3.85033 311.835 3.6151 310.177 4.48544 309.306C5.35578 308.436 7.01412 308.671 8.17849 309.836Z" fill="#E0E0E0"/>
<path opacity="0.1" d="M4.65063 310.529C4.65063 309.741 5.92089 309.412 7.06174 310.424C7.46532 310.714 7.77578 311.115 7.95537 311.579C8.13495 312.042 8.17589 312.548 8.0732 313.035C8.01527 313.143 7.93626 313.24 7.84076 313.318C7.74526 313.396 7.6352 313.454 7.51697 313.489C7.39874 313.524 7.2747 313.535 7.15212 313.522C7.02954 313.508 6.91087 313.471 6.80299 313.411C7.30873 313.411 7.67334 313.035 7.54396 312.317C7.44134 311.863 7.23213 311.439 6.93357 311.081C6.63501 310.723 6.25563 310.441 5.82677 310.259C5.27399 310.059 4.81529 310.188 4.65063 310.529Z" fill="black"/>
<path d="M32.537 302.19C32.7536 301.53 33.2173 300.978 33.8311 300.652C34.4449 300.325 35.1612 300.248 35.8302 300.438C37.0063 300.967 37.2886 302.602 36.5946 304.084C35.9007 305.566 34.4306 306.366 33.3015 305.836C32.1724 305.307 31.8431 303.684 32.537 302.19Z" fill="#E0E0E0"/>
<path opacity="0.1" d="M34.3949 305.271C33.6656 305.53 32.9129 304.448 33.4657 303.037C33.9126 301.861 34.8771 301.108 35.5828 301.19C35.7054 301.207 35.8233 301.249 35.9297 301.312C36.036 301.376 36.1286 301.46 36.2021 301.559C36.2755 301.659 36.3282 301.773 36.3572 301.893C36.3862 302.013 36.3908 302.138 36.3708 302.26C36.2179 301.766 35.7239 301.567 35.0888 301.931C34.6897 302.183 34.3587 302.53 34.1249 302.94C33.8911 303.35 33.7617 303.812 33.748 304.283C33.748 304.836 34.0185 305.224 34.3949 305.271Z" fill="black"/>
<path d="M14.1769 294.922C14.4004 296.545 13.5888 298.003 12.3656 298.18C11.1425 298.356 9.95457 297.157 9.7311 295.534C9.50764 293.91 10.3192 292.44 11.5424 292.276C12.7655 292.111 13.9534 293.287 14.1769 294.922Z" fill="#E0E0E0"/>
<path opacity="0.1" d="M10.9432 293.346C11.4136 292.723 12.6368 293.229 12.9309 294.722C13.0782 295.197 13.0844 295.704 12.9487 296.182C12.813 296.661 12.5412 297.089 12.1664 297.416C12.0537 297.467 11.932 297.495 11.8082 297.499C11.6845 297.503 11.5612 297.483 11.4454 297.439C11.3296 297.395 11.2235 297.329 11.1333 297.244C11.0431 297.16 10.9705 297.058 10.9197 296.945C11.3196 297.263 11.8488 297.169 12.1664 296.522C12.3638 296.1 12.4563 295.637 12.4358 295.172C12.4153 294.707 12.2825 294.254 12.0488 293.852C11.7312 293.358 11.2843 293.181 10.9432 293.346Z" fill="black"/>
<path d="M34.7481 316.246C36.23 315.528 37.8649 315.858 38.4059 316.975C38.9469 318.092 38.1824 319.562 36.7005 320.28C35.2185 320.997 33.5837 320.668 33.0427 319.562C32.5017 318.457 33.2661 316.916 34.7481 316.246Z" fill="#E0E0E0"/>
<path opacity="0.1" d="M34.2421 319.773C33.5129 319.514 33.607 318.197 34.936 317.421C35.3462 317.136 35.8302 316.977 36.3293 316.962C36.8283 316.947 37.3209 317.078 37.747 317.338C37.8293 317.429 37.8928 317.536 37.9338 317.651C37.9749 317.767 37.9926 317.889 37.9861 318.012C37.9795 318.134 37.9488 318.254 37.8956 318.365C37.8425 318.475 37.768 318.574 37.6765 318.656C37.8646 318.185 37.6059 317.715 36.8884 317.597C36.4259 317.541 35.9567 317.597 35.5205 317.761C35.0843 317.924 34.6942 318.191 34.3832 318.538C34.0186 319.008 33.9834 319.491 34.2421 319.773Z" fill="black"/>
<path d="M23.5864 289.806C24.5047 289.652 25.4481 289.783 26.2897 290.181C27.1314 290.58 27.8311 291.226 28.295 292.033C28.7589 292.84 28.9647 293.77 28.8849 294.698C28.8051 295.625 28.4434 296.506 27.8484 297.223C27.2535 297.939 26.4536 298.456 25.5563 298.704C24.659 298.953 23.7072 298.921 22.8285 298.613C21.9498 298.305 21.1865 297.736 20.6408 296.981C20.0951 296.227 19.7932 295.323 19.7757 294.392C19.6775 293.28 20.0228 292.173 20.7366 291.314C21.4503 290.455 22.4746 289.913 23.5864 289.806V289.806Z" fill="#E0E0E0"/>
<path opacity="0.1" d="M22.5042 297.251C23.6803 297.968 25.5739 297.25 26.1972 295.18C26.8206 293.11 25.0211 290.335 23.1745 290.935C23.8479 291.255 24.3977 291.788 24.7397 292.45C25.0817 293.113 25.1971 293.87 25.0681 294.604C24.9035 296.333 23.7273 297.427 22.5042 297.251Z" fill="black"/>
<path d="M183.91 184.299C179.819 181.811 175.189 180.342 170.411 180.019C172.579 181.171 173.292 185.342 171.371 192.86C169.807 198.978 168.106 204.823 166.789 209.02C166.597 209.652 166.433 210.228 166.24 210.776L169.78 211.901C169.972 211.353 170.137 210.776 170.356 210.145C171.701 205.975 173.649 200.186 175.844 194.259C178.642 187.016 181.386 183.998 183.91 184.299Z" fill="#64CF83"/>
<path opacity="0.2" d="M170.411 209.679C169.858 209.396 169.279 209.167 168.683 208.993C168.088 208.814 167.483 208.668 166.872 208.554L166.159 210.776L169.698 211.901L170.411 209.679Z" fill="black"/>
<path opacity="0.3" d="M171.262 216.705C171.646 215.497 169.917 213.961 167.393 213.083C164.869 212.205 162.537 212.644 162.152 213.824C161.933 214.564 162.509 215.47 163.579 216.238C162.619 215.086 163.222 213.878 164.924 213.769C166.732 213.806 168.489 214.378 169.972 215.415C170.795 216.128 171.179 216.814 170.603 217.445C170.904 217.285 171.138 217.022 171.262 216.705V216.705Z" fill="black"/>
<path d="M159.767 174.177C156.795 170.749 153.382 167.732 149.615 165.205C151.179 166.906 151.261 169.595 148.874 172.86C146.954 175.603 144.923 178.018 143.387 179.746L142.756 180.46L145.499 182.792L146.158 182.079C147.667 180.377 149.889 178.073 152.304 175.823C155.212 173.079 157.874 172.805 159.767 174.177Z" fill="#64CF83"/>
<path opacity="0.2" d="M146.457 181.667C146.073 181.256 145.662 180.844 145.195 180.432C144.756 180.033 144.288 179.666 143.796 179.335L142.808 180.46L145.552 182.792L146.457 181.667Z" fill="black"/>
<path d="M146.952 187.264C146.734 187.503 146.473 187.698 146.184 187.84H145.964H145.635H145.196C143.523 187.605 141.967 186.846 140.751 185.673C139.431 184.607 138.473 183.16 138.007 181.53V181.53C138.019 181.439 138.019 181.346 138.007 181.255V181.091C137.994 180.981 137.994 180.871 138.007 180.761V180.761C138.019 180.689 138.019 180.615 138.007 180.542C138.113 180.234 138.271 179.947 138.474 179.691C138.692 179.461 138.953 179.274 139.242 179.143C140.394 178.512 142.726 179.307 144.729 181.118C146.732 182.929 147.857 185.124 147.473 186.359C147.366 186.694 147.188 187.003 146.952 187.264V187.264Z" fill="#64CF83"/>
<path opacity="0.3" d="M144.758 186.361C145.361 185.702 144.758 184.138 143.276 182.904C141.794 181.669 140.23 181.203 139.654 181.861C139.078 182.52 139.38 183.041 139.874 183.837C139.572 182.821 140.34 182.218 141.465 182.629C142.606 183.199 143.558 184.085 144.209 185.181C144.538 185.867 144.593 186.416 144.017 186.663C144.155 186.67 144.293 186.647 144.421 186.595C144.549 186.543 144.664 186.463 144.758 186.361Z" fill="black"/>
<path d="M142.315 155.491C141.388 150.793 139.357 146.382 136.388 142.623C136.992 145.01 134.385 148.33 127.553 151.897C122.066 154.806 116.578 157.385 112.573 159.278L110.899 160.046L112.463 163.421L114.137 162.653C118.115 160.869 123.685 158.482 129.529 156.177C136.69 153.269 140.888 153.598 142.315 155.491Z" fill="#64CF83"/>
<path opacity="0.2" d="M114.576 162.379C114.4 161.778 114.18 161.191 113.917 160.623C113.674 160.049 113.38 159.498 113.039 158.976L110.899 159.964L112.463 163.339L114.576 162.379Z" fill="black"/>
<path d="M112.162 170.94C111.71 171.131 111.225 171.234 110.735 171.242H110.268H109.747H109.528C109.391 171.211 109.26 171.155 109.144 171.077V171.077C107.037 169.615 105.363 167.613 104.296 165.282C103.229 162.95 102.809 160.375 103.08 157.825V157.825C103.08 157.825 103.08 157.55 103.08 157.441V157.194L103.327 156.727L103.519 156.48C103.838 156.093 104.242 155.783 104.699 155.575C105.14 155.381 105.616 155.278 106.098 155.273C108.101 155.273 110.845 157.688 112.601 161.474C114.357 165.26 114.439 169.019 113.012 170.446C112.754 170.651 112.468 170.818 112.162 170.94Z" fill="#64CF83"/>
<path opacity="0.3" d="M109.665 168.306C110.9 167.757 110.955 165.15 109.665 162.544C108.376 159.937 106.482 158.264 105.248 158.84C104.479 159.169 104.15 160.294 104.315 161.584C104.562 159.992 105.989 159.608 107.306 160.87C108.595 162.376 109.415 164.226 109.665 166.193C109.665 167.373 109.418 168.196 108.485 168.196C108.661 168.301 108.859 168.366 109.063 168.385C109.267 168.404 109.473 168.377 109.665 168.306Z" fill="black"/>
<path d="M133.947 131.374C134.702 126.414 134.646 121.363 133.782 116.421C133.508 118.972 130.901 121.03 125.551 121.524C121.133 121.908 116.881 122.1 113.835 122.155H112.518V126.051H113.808C116.853 126.051 121.133 126.051 125.551 126.463C130.956 126.847 133.59 128.905 133.947 131.374Z" fill="#64CF83"/>
<path opacity="0.2" d="M114.301 126.161C114.301 125.53 114.301 124.899 114.301 124.213C114.298 123.552 114.252 122.892 114.164 122.237H112.38V126.133L114.301 126.161Z" fill="black"/>
<path d="M109.721 130.578C109.362 130.574 109.008 130.499 108.678 130.359H108.459L108.157 130.139H108.02L107.8 129.92C106.726 128.298 106.197 126.375 106.291 124.432C106.159 122.497 106.66 120.571 107.718 118.945V118.945L107.91 118.725H108.047L108.349 118.506H108.568C108.894 118.35 109.25 118.266 109.611 118.259C109.969 118.263 110.324 118.338 110.654 118.478C112.025 118.972 113.123 121.496 113.15 124.569C113.178 127.642 112.135 130.057 110.763 130.688C110.412 130.737 110.054 130.7 109.721 130.578V130.578Z" fill="#64CF83"/>
<path opacity="0.3" d="M108.816 128.083C109.831 128.083 110.626 126.355 110.599 124.242C110.572 122.13 109.748 120.428 108.761 120.428C107.773 120.428 107.581 121.087 107.279 122.102C107.91 121.087 108.98 121.252 109.474 122.514C109.888 123.901 109.888 125.379 109.474 126.767C109.145 127.59 108.706 128.029 108.075 127.754C108.272 127.952 108.536 128.07 108.816 128.083V128.083Z" fill="black"/>
<path d="M231.734 72.302C221.654 65.1179 209.669 61.0846 197.296 60.712C184.923 60.3395 172.718 63.6445 162.223 70.209C151.728 76.7736 143.416 86.3028 138.338 97.5916C133.259 108.88 131.642 121.422 133.692 133.63C135.741 145.837 141.364 157.163 149.851 166.175C158.337 175.186 169.306 181.479 181.368 184.257C193.431 187.035 206.047 186.173 217.62 181.78C229.193 177.388 239.204 169.662 246.386 159.58C256.015 146.063 259.881 129.274 257.134 112.907C254.386 96.5397 245.25 81.9339 231.734 72.302V72.302Z" fill="#64CF83"/>
<path d="M231.734 72.302C221.654 65.1179 209.669 61.0846 197.296 60.712C184.923 60.3395 172.718 63.6445 162.223 70.209C151.728 76.7736 143.416 86.3028 138.338 97.5916C133.259 108.88 131.642 121.422 133.692 133.63C135.741 145.837 141.364 157.163 149.851 166.175C158.337 175.186 169.306 181.479 181.368 184.257C193.431 187.035 206.047 186.173 217.62 181.78C229.193 177.388 239.204 169.662 246.386 159.58C256.015 146.063 259.881 129.274 257.134 112.907C254.386 96.5397 245.25 81.9339 231.734 72.302V72.302Z" fill="#64CF83"/>
<path opacity="0.4" d="M231.734 72.302C221.654 65.1179 209.669 61.0846 197.296 60.712C184.923 60.3395 172.718 63.6445 162.223 70.209C151.728 76.7736 143.416 86.3028 138.338 97.5916C133.259 108.88 131.642 121.422 133.692 133.63C135.741 145.837 141.364 157.163 149.851 166.175C158.337 175.186 169.306 181.479 181.368 184.257C193.431 187.035 206.047 186.173 217.62 181.78C229.193 177.388 239.204 169.662 246.386 159.58C256.015 146.063 259.881 129.274 257.134 112.907C254.386 96.5397 245.25 81.9339 231.734 72.302V72.302Z" fill="white"/>
<path opacity="0.1" d="M212.419 63.0557C194.42 58.5286 148.846 71.2869 140.835 115.955C132.823 160.623 176.503 183.561 192.197 185.811C183.41 185.344 174.82 183.03 166.987 179.019C159.155 175.009 152.256 169.391 146.741 162.533C141.227 155.676 137.22 147.732 134.984 139.222C132.747 130.711 132.33 121.824 133.76 113.141C135.191 104.459 138.436 96.175 143.284 88.8314C148.133 81.4878 154.475 75.2492 161.898 70.5228C169.321 65.7963 177.657 62.6884 186.362 61.4017C195.067 60.1151 203.946 60.6787 212.419 63.0557V63.0557Z" fill="black"/>
<path d="M160.094 135.874C159.271 131.21 155.759 127.945 152.274 128.576C148.79 129.207 146.622 133.46 147.418 138.097C148.213 142.733 151.753 145.999 155.237 145.395C158.722 144.791 160.917 140.511 160.094 135.874Z" fill="#64CF83"/>
<path opacity="0.1" d="M160.094 135.874C159.271 131.21 155.759 127.945 152.274 128.576C148.79 129.207 146.622 133.46 147.418 138.097C148.213 142.733 151.753 145.999 155.237 145.395C158.722 144.791 160.917 140.511 160.094 135.874Z" fill="black"/>
<path opacity="0.25" d="M152.66 143.008C154.47 144.298 157.351 141.856 156.885 137.521C156.501 134.091 154.416 131.155 152.413 130.853C151.706 130.791 151.003 131.005 150.45 131.45C149.898 131.895 149.539 132.537 149.449 133.24C150.218 132.006 151.754 131.786 153.208 133.24C154.119 134.22 154.777 135.406 155.126 136.697C155.475 137.988 155.504 139.344 155.211 140.649C154.772 142.295 153.702 143.145 152.66 143.008Z" fill="black"/>
<path d="M182.32 111.454C185.557 108.025 186.133 103.223 183.554 100.836C180.975 98.449 176.256 99.1624 173.018 102.592C169.781 106.022 169.205 110.823 171.756 113.183C174.308 115.542 179.055 114.857 182.32 111.454Z" fill="#64CF83"/>
<path opacity="0.1" d="M182.32 111.454C185.557 108.025 186.133 103.223 183.554 100.836C180.975 98.449 176.256 99.1624 173.018 102.592C169.781 106.022 169.205 110.823 171.756 113.183C174.308 115.542 179.055 114.857 182.32 111.454Z" fill="black"/>
<path opacity="0.25" d="M172.139 109.7C172.139 111.922 175.871 112.8 179.081 109.7C181.633 107.367 182.758 103.938 181.825 102.127C181.454 101.523 180.865 101.086 180.18 100.907C179.494 100.728 178.766 100.821 178.148 101.166C179.602 101.166 180.672 102.154 180.343 104.212C180.095 105.526 179.531 106.76 178.699 107.807C177.867 108.854 176.793 109.682 175.569 110.221C173.978 110.989 172.661 110.632 172.139 109.7Z" fill="black"/>
<path d="M157.103 107.531C157.264 106.617 157.167 105.676 156.823 104.814C156.479 103.952 155.902 103.202 155.155 102.65C154.409 102.098 153.523 101.765 152.598 101.688C151.673 101.611 150.745 101.794 149.918 102.216C149.091 102.637 148.397 103.281 147.916 104.075C147.434 104.868 147.184 105.781 147.192 106.709C147.2 107.637 147.467 108.545 147.962 109.33C148.458 110.115 149.162 110.746 149.997 111.153C151.42 111.583 152.954 111.446 154.278 110.771C155.602 110.096 156.614 108.935 157.103 107.531V107.531Z" fill="#64CF83"/>
<path opacity="0.1" d="M157.103 107.531C157.264 106.617 157.167 105.676 156.823 104.814C156.479 103.952 155.902 103.202 155.155 102.65C154.409 102.098 153.523 101.765 152.598 101.688C151.673 101.611 150.745 101.794 149.918 102.216C149.091 102.637 148.397 103.281 147.916 104.075C147.434 104.868 147.184 105.781 147.192 106.709C147.2 107.637 147.467 108.545 147.962 109.33C148.458 110.115 149.162 110.746 149.997 111.153C151.42 111.583 152.954 111.446 154.278 110.771C155.602 110.096 156.614 108.935 157.103 107.531V107.531Z" fill="black"/>
<path d="M179.795 136.149C178.945 133.186 176.421 131.32 174.308 131.979C173.083 131.959 171.883 132.327 170.879 133.031C169.875 133.734 169.119 134.736 168.719 135.894C168.318 137.053 168.294 138.308 168.649 139.481C169.005 140.653 169.721 141.684 170.697 142.426C171.672 143.167 172.857 143.582 174.083 143.61C175.308 143.638 176.511 143.278 177.519 142.583C178.528 141.887 179.291 140.89 179.7 139.735C180.109 138.579 180.142 137.325 179.795 136.149V136.149Z" fill="#64CF83"/>
<path opacity="0.1" d="M179.795 136.149C178.945 133.186 176.421 131.32 174.308 131.979C173.083 131.959 171.883 132.327 170.879 133.031C169.875 133.734 169.119 134.736 168.719 135.894C168.318 137.053 168.294 138.308 168.649 139.481C169.005 140.653 169.721 141.684 170.697 142.426C171.672 143.167 172.857 143.582 174.083 143.61C175.308 143.638 176.511 143.278 177.519 142.583C178.528 141.887 179.291 140.89 179.7 139.735C180.109 138.579 180.142 137.325 179.795 136.149V136.149Z" fill="black"/>
<path d="M171.811 161.42C171.041 161.169 170.216 161.138 169.429 161.329C168.642 161.521 167.924 161.927 167.355 162.504C166.787 163.08 166.389 163.804 166.208 164.593C166.028 165.383 166.07 166.207 166.331 166.973C166.592 167.74 167.061 168.419 167.686 168.934C168.31 169.449 169.066 169.78 169.869 169.89C170.671 170 171.488 169.885 172.229 169.556C172.969 169.228 173.603 168.7 174.061 168.032C174.61 166.852 174.683 165.506 174.264 164.274C173.845 163.042 172.966 162.019 171.811 161.42V161.42Z" fill="#64CF83"/>
<path opacity="0.1" d="M171.811 161.42C171.041 161.169 170.216 161.138 169.429 161.329C168.642 161.521 167.924 161.927 167.355 162.504C166.787 163.08 166.389 163.804 166.208 164.593C166.028 165.383 166.07 166.207 166.331 166.973C166.592 167.74 167.061 168.419 167.686 168.934C168.31 169.449 169.066 169.78 169.869 169.89C170.671 170 171.488 169.885 172.229 169.556C172.969 169.228 173.603 168.7 174.061 168.032C174.61 166.852 174.683 165.506 174.264 164.274C173.845 163.042 172.966 162.019 171.811 161.42V161.42Z" fill="black"/>
<path opacity="0.25" d="M171.756 168.14C173.183 167.893 173.375 165.396 171.125 163.668C170.449 163.028 169.603 162.596 168.688 162.426C167.773 162.256 166.828 162.353 165.967 162.708C165.607 163.002 165.379 163.428 165.332 163.891C165.286 164.354 165.425 164.817 165.72 165.177C165.5 164.244 166.104 163.448 167.448 163.448C168.322 163.476 169.176 163.713 169.939 164.137C170.703 164.562 171.354 165.163 171.838 165.89C172.387 166.823 172.305 167.729 171.756 168.14Z" fill="black"/>
<path d="M199.797 115.734C198.141 115.198 196.359 115.182 194.693 115.687C193.026 116.193 191.554 117.196 190.475 118.562C189.395 119.929 188.759 121.593 188.653 123.331C188.546 125.069 188.974 126.798 189.879 128.286C190.784 129.774 192.122 130.95 193.714 131.655C195.307 132.36 197.077 132.561 198.786 132.231C200.496 131.901 202.064 131.056 203.28 129.809C204.496 128.562 205.301 126.973 205.587 125.255C206.068 123.226 205.73 121.088 204.646 119.306C203.563 117.524 201.821 116.241 199.797 115.734V115.734Z" fill="#64CF83"/>
<path opacity="0.1" d="M199.797 115.734C198.141 115.198 196.359 115.182 194.693 115.687C193.026 116.193 191.554 117.196 190.475 118.562C189.395 119.929 188.759 121.593 188.653 123.331C188.546 125.069 188.974 126.798 189.879 128.286C190.784 129.774 192.122 130.95 193.714 131.655C195.307 132.36 197.077 132.561 198.786 132.231C200.496 131.901 202.064 131.056 203.28 129.809C204.496 128.562 205.301 126.973 205.587 125.255C206.068 123.226 205.73 121.088 204.646 119.306C203.563 117.524 201.821 116.241 199.797 115.734V115.734Z" fill="black"/>
<path opacity="0.25" d="M199.741 129.81C197.272 130.77 194.062 128.905 193.458 124.954C192.854 121.003 196.915 116.311 200.235 117.93C199.004 118.488 197.941 119.36 197.151 120.458C196.362 121.555 195.873 122.84 195.735 124.185C195.622 124.819 195.636 125.468 195.776 126.096C195.917 126.723 196.182 127.317 196.555 127.841C196.928 128.365 197.402 128.809 197.949 129.147C198.497 129.485 199.106 129.711 199.741 129.81Z" fill="black"/>
</g>
</svg>
